<svg xmlns="http://www.w3.org/2000/svg" width="1600" height="1200" viewBox="0 0 1600 1200" role="img" aria-label="Placeholder">
<defs>
<linearGradient id="g" gradientTransform="rotate(23)"><stop offset="0" stop-color="#4A3320"/><stop offset="1" stop-color="#8B5A2B"/></linearGradient>
<filter id="f" x="-5%" y="-10%" width="110%" height="120%"><feTurbulence type="fractalNoise" baseFrequency="0.004 0.08" numOctaves="3" seed="717" result="t"/><feDisplacementMap in="SourceGraphic" in2="t" scale="42" xChannelSelector="R" yChannelSelector="G"/></filter>
<radialGradient id="v" cx="0.22" cy="0.35" r="1"><stop offset="0" stop-color="#E9A23B" stop-opacity="0.16"/><stop offset="0.55" stop-color="#0F0D0B" stop-opacity="0.1"/><stop offset="1" stop-color="#0F0D0B" stop-opacity="0.6"/></radialGradient>
</defs>
<rect width="1600" height="1200" fill="url(#g)"/>
<g filter="url(#f)"><rect y="527" width="1600" height="9" fill="#A87A50" opacity="0.17"/><rect y="833" width="1600" height="4" fill="#2C1A0E" opacity="0.41"/><rect y="1180" width="1600" height="5" fill="#2C1A0E" opacity="0.18"/><rect y="398" width="1600" height="16" fill="#A87A50" opacity="0.37"/><rect y="400" width="1600" height="11" fill="#2C1A0E" opacity="0.21"/><rect y="438" width="1600" height="3" fill="#A87A50" opacity="0.16"/><rect y="171" width="1600" height="7" fill="#2C1A0E" opacity="0.37"/><rect y="1191" width="1600" height="12" fill="#A87A50" opacity="0.34"/><rect y="268" width="1600" height="6" fill="#2C1A0E" opacity="0.23"/><rect y="398" width="1600" height="4" fill="#A87A50" opacity="0.29"/><rect y="373" width="1600" height="2" fill="#A87A50" opacity="0.22"/><rect y="1089" width="1600" height="5" fill="#2C1A0E" opacity="0.14"/><rect y="307" width="1600" height="6" fill="#2C1A0E" opacity="0.23"/><rect y="44" width="1600" height="9" fill="#A87A50" opacity="0.40"/><rect y="672" width="1600" height="5" fill="#A87A50" opacity="0.31"/><rect y="247" width="1600" height="2" fill="#A87A50" opacity="0.40"/><rect y="897" width="1600" height="7" fill="#A87A50" opacity="0.25"/><rect y="914" width="1600" height="13" fill="#A87A50" opacity="0.23"/><rect y="146" width="1600" height="3" fill="#2C1A0E" opacity="0.22"/><rect y="200" width="1600" height="15" fill="#2C1A0E" opacity="0.31"/><rect y="870" width="1600" height="3" fill="#A87A50" opacity="0.18"/><rect y="781" width="1600" height="4" fill="#A87A50" opacity="0.24"/><rect y="680" width="1600" height="9" fill="#2C1A0E" opacity="0.24"/><rect y="625" width="1600" height="8" fill="#2C1A0E" opacity="0.32"/><rect y="195" width="1600" height="15" fill="#2C1A0E" opacity="0.17"/><rect y="1028" width="1600" height="11" fill="#2C1A0E" opacity="0.35"/><rect y="910" width="1600" height="10" fill="#2C1A0E" opacity="0.24"/><rect y="700" width="1600" height="15" fill="#A87A50" opacity="0.25"/><rect y="831" width="1600" height="12" fill="#2C1A0E" opacity="0.26"/><rect y="121" width="1600" height="7" fill="#2C1A0E" opacity="0.28"/><rect y="553" width="1600" height="9" fill="#A87A50" opacity="0.19"/><rect y="265" width="1600" height="8" fill="#A87A50" opacity="0.14"/><rect y="823" width="1600" height="3" fill="#A87A50" opacity="0.20"/><rect y="1199" width="1600" height="2" fill="#A87A50" opacity="0.42"/><rect y="494" width="1600" height="11" fill="#2C1A0E" opacity="0.21"/><rect y="1048" width="1600" height="11" fill="#A87A50" opacity="0.36"/><rect y="30" width="1600" height="12" fill="#A87A50" opacity="0.37"/><rect y="5" width="1600" height="14" fill="#A87A50" opacity="0.30"/><rect y="832" width="1600" height="4" fill="#2C1A0E" opacity="0.32"/><rect y="769" width="1600" height="5" fill="#A87A50" opacity="0.23"/><rect y="443" width="1600" height="7" fill="#2C1A0E" opacity="0.19"/><rect y="1091" width="1600" height="8" fill="#2C1A0E" opacity="0.34"/><rect y="43" width="1600" height="9" fill="#2C1A0E" opacity="0.23"/><rect y="709" width="1600" height="15" fill="#A87A50" opacity="0.26"/><rect y="920" width="1600" height="7" fill="#A87A50" opacity="0.40"/><rect y="102" width="1600" height="14" fill="#A87A50" opacity="0.15"/><rect y="982" width="1600" height="15" fill="#2C1A0E" opacity="0.39"/><rect y="560" width="1600" height="13" fill="#A87A50" opacity="0.30"/><rect y="240" width="1600" height="15" fill="#2C1A0E" opacity="0.26"/><rect y="103" width="1600" height="3" fill="#A87A50" opacity="0.37"/><rect y="860" width="1600" height="15" fill="#A87A50" opacity="0.31"/><rect y="26" width="1600" height="10" fill="#A87A50" opacity="0.21"/><rect y="772" width="1600" height="11" fill="#2C1A0E" opacity="0.14"/><rect y="754" width="1600" height="9" fill="#A87A50" opacity="0.24"/><rect y="1082" width="1600" height="10" fill="#2C1A0E" opacity="0.22"/><rect y="583" width="1600" height="8" fill="#2C1A0E" opacity="0.29"/><rect y="12" width="1600" height="6" fill="#A87A50" opacity="0.18"/><rect y="950" width="1600" height="14" fill="#A87A50" opacity="0.34"/><rect y="1125" width="1600" height="14" fill="#2C1A0E" opacity="0.29"/><rect y="1002" width="1600" height="3" fill="#2C1A0E" opacity="0.41"/><rect y="575" width="1600" height="9" fill="#2C1A0E" opacity="0.33"/><rect y="1064" width="1600" height="7" fill="#2C1A0E" opacity="0.15"/><rect y="955" width="1600" height="4" fill="#A87A50" opacity="0.24"/><rect y="698" width="1600" height="9" fill="#2C1A0E" opacity="0.22"/><rect y="878" width="1600" height="14" fill="#2C1A0E" opacity="0.38"/><rect y="1066" width="1600" height="3" fill="#A87A50" opacity="0.30"/><rect y="40" width="1600" height="13" fill="#2C1A0E" opacity="0.37"/><rect y="124" width="1600" height="12" fill="#A87A50" opacity="0.27"/><rect y="880" width="1600" height="13" fill="#A87A50" opacity="0.19"/><rect y="355" width="1600" height="6" fill="#A87A50" opacity="0.34"/><rect y="992" width="1600" height="14" fill="#A87A50" opacity="0.33"/><rect y="659" width="1600" height="4" fill="#A87A50" opacity="0.18"/><rect y="508" width="1600" height="10" fill="#A87A50" opacity="0.16"/><rect y="592" width="1600" height="7" fill="#A87A50" opacity="0.24"/><rect y="217" width="1600" height="11" fill="#A87A50" opacity="0.28"/><rect y="836" width="1600" height="13" fill="#A87A50" opacity="0.14"/><rect y="1116" width="1600" height="8" fill="#A87A50" opacity="0.27"/><rect y="384" width="1600" height="12" fill="#2C1A0E" opacity="0.12"/><rect y="161" width="1600" height="6" fill="#2C1A0E" opacity="0.20"/><rect y="686" width="1600" height="5" fill="#2C1A0E" opacity="0.25"/><rect y="313" width="1600" height="8" fill="#2C1A0E" opacity="0.14"/><rect y="677" width="1600" height="10" fill="#2C1A0E" opacity="0.25"/><rect y="258" width="1600" height="6" fill="#A87A50" opacity="0.12"/><rect y="151" width="1600" height="14" fill="#2C1A0E" opacity="0.33"/><rect y="928" width="1600" height="2" fill="#2C1A0E" opacity="0.42"/><rect y="1148" width="1600" height="14" fill="#2C1A0E" opacity="0.30"/><rect y="958" width="1600" height="10" fill="#2C1A0E" opacity="0.36"/><rect y="995" width="1600" height="13" fill="#A87A50" opacity="0.30"/><rect y="31" width="1600" height="12" fill="#A87A50" opacity="0.41"/><rect y="1073" width="1600" height="12" fill="#2C1A0E" opacity="0.34"/><rect y="1025" width="1600" height="6" fill="#A87A50" opacity="0.37"/><rect y="33" width="1600" height="6" fill="#2C1A0E" opacity="0.42"/><rect y="781" width="1600" height="12" fill="#2C1A0E" opacity="0.26"/><rect y="686" width="1600" height="14" fill="#A87A50" opacity="0.17"/><rect y="1154" width="1600" height="10" fill="#A87A50" opacity="0.39"/><rect y="822" width="1600" height="11" fill="#A87A50" opacity="0.13"/><rect y="227" width="1600" height="8" fill="#A87A50" opacity="0.35"/><rect y="71" width="1600" height="2" fill="#2C1A0E" opacity="0.23"/><rect y="1159" width="1600" height="7" fill="#2C1A0E" opacity="0.25"/><rect y="1001" width="1600" height="3" fill="#A87A50" opacity="0.35"/><rect y="882" width="1600" height="16" fill="#2C1A0E" opacity="0.15"/><rect y="292" width="1600" height="3" fill="#2C1A0E" opacity="0.16"/><rect y="855" width="1600" height="8" fill="#A87A50" opacity="0.20"/><rect y="813" width="1600" height="12" fill="#2C1A0E" opacity="0.37"/><rect y="255" width="1600" height="9" fill="#A87A50" opacity="0.32"/><rect y="259" width="1600" height="12" fill="#A87A50" opacity="0.42"/><rect y="993" width="1600" height="11" fill="#2C1A0E" opacity="0.30"/><ellipse cx="729" cy="644" rx="59" ry="37" fill="none" stroke="#2C1A0E" stroke-width="4.7" opacity="0.35"/><ellipse cx="423" cy="578" rx="140" ry="88" fill="none" stroke="#2C1A0E" stroke-width="3.4" opacity="0.35"/></g>
<rect width="1600" height="1200" fill="url(#v)"/>
</svg>
