<svg xmlns="http://www.w3.org/2000/svg" width="1600" height="1200" viewBox="0 0 1600 1200" role="img" aria-label="Placeholder">
<defs>
<linearGradient id="g" gradientTransform="rotate(21)"><stop offset="0" stop-color="#4A3320"/><stop offset="1" stop-color="#8B5A2B"/></linearGradient>
<filter id="f" x="-5%" y="-10%" width="110%" height="120%"><feTurbulence type="fractalNoise" baseFrequency="0.004 0.08" numOctaves="3" seed="479" result="t"/><feDisplacementMap in="SourceGraphic" in2="t" scale="42" xChannelSelector="R" yChannelSelector="G"/></filter>
<radialGradient id="v" cx="0.45" cy="0.40" r="1"><stop offset="0" stop-color="#E9A23B" stop-opacity="0.16"/><stop offset="0.55" stop-color="#0F0D0B" stop-opacity="0.1"/><stop offset="1" stop-color="#0F0D0B" stop-opacity="0.6"/></radialGradient>
</defs>
<rect width="1600" height="1200" fill="url(#g)"/>
<g filter="url(#f)"><rect y="117" width="1600" height="4" fill="#A87A50" opacity="0.14"/><rect y="1054" width="1600" height="10" fill="#A87A50" opacity="0.27"/><rect y="1101" width="1600" height="3" fill="#2C1A0E" opacity="0.37"/><rect y="85" width="1600" height="13" fill="#2C1A0E" opacity="0.18"/><rect y="620" width="1600" height="11" fill="#A87A50" opacity="0.21"/><rect y="119" width="1600" height="13" fill="#2C1A0E" opacity="0.41"/><rect y="1167" width="1600" height="8" fill="#2C1A0E" opacity="0.31"/><rect y="260" width="1600" height="3" fill="#A87A50" opacity="0.41"/><rect y="167" width="1600" height="10" fill="#A87A50" opacity="0.17"/><rect y="200" width="1600" height="8" fill="#2C1A0E" opacity="0.39"/><rect y="1010" width="1600" height="13" fill="#A87A50" opacity="0.12"/><rect y="1101" width="1600" height="11" fill="#A87A50" opacity="0.22"/><rect y="816" width="1600" height="11" fill="#A87A50" opacity="0.34"/><rect y="595" width="1600" height="13" fill="#2C1A0E" opacity="0.36"/><rect y="882" width="1600" height="7" fill="#A87A50" opacity="0.35"/><rect y="786" width="1600" height="15" fill="#2C1A0E" opacity="0.19"/><rect y="892" width="1600" height="13" fill="#A87A50" opacity="0.16"/><rect y="797" width="1600" height="4" fill="#A87A50" opacity="0.17"/><rect y="340" width="1600" height="5" fill="#A87A50" opacity="0.19"/><rect y="557" width="1600" height="9" fill="#2C1A0E" opacity="0.35"/><rect y="1075" width="1600" height="3" fill="#A87A50" opacity="0.14"/><rect y="934" width="1600" height="8" fill="#2C1A0E" opacity="0.33"/><rect y="942" width="1600" height="2" fill="#A87A50" opacity="0.22"/><rect y="324" width="1600" height="10" fill="#A87A50" opacity="0.35"/><rect y="908" width="1600" height="9" fill="#A87A50" opacity="0.28"/><rect y="554" width="1600" height="14" fill="#A87A50" opacity="0.18"/><rect y="875" width="1600" height="16" fill="#2C1A0E" opacity="0.40"/><rect y="19" width="1600" height="7" fill="#A87A50" opacity="0.18"/><rect y="450" width="1600" height="7" fill="#A87A50" opacity="0.16"/><rect y="724" width="1600" height="8" fill="#2C1A0E" opacity="0.32"/><rect y="756" width="1600" height="13" fill="#2C1A0E" opacity="0.38"/><rect y="234" width="1600" height="10" fill="#A87A50" opacity="0.40"/><rect y="36" width="1600" height="10" fill="#A87A50" opacity="0.24"/><rect y="16" width="1600" height="7" fill="#A87A50" opacity="0.13"/><rect y="622" width="1600" height="5" fill="#A87A50" opacity="0.18"/><rect y="233" width="1600" height="9" fill="#A87A50" opacity="0.41"/><rect y="649" width="1600" height="10" fill="#A87A50" opacity="0.23"/><rect y="780" width="1600" height="15" fill="#A87A50" opacity="0.35"/><rect y="5" width="1600" height="4" fill="#2C1A0E" opacity="0.16"/><rect y="473" width="1600" height="4" fill="#A87A50" opacity="0.21"/><rect y="160" width="1600" height="10" fill="#A87A50" opacity="0.41"/><rect y="221" width="1600" height="3" fill="#A87A50" opacity="0.18"/><rect y="15" width="1600" height="8" fill="#A87A50" opacity="0.22"/><rect y="438" width="1600" height="7" fill="#2C1A0E" opacity="0.27"/><rect y="552" width="1600" height="5" fill="#2C1A0E" opacity="0.30"/><rect y="1112" width="1600" height="16" fill="#2C1A0E" opacity="0.14"/><rect y="700" width="1600" height="11" fill="#2C1A0E" opacity="0.19"/><rect y="1022" width="1600" height="10" fill="#A87A50" opacity="0.37"/><rect y="823" width="1600" height="4" fill="#2C1A0E" opacity="0.27"/><rect y="12" width="1600" height="4" fill="#2C1A0E" opacity="0.24"/><rect y="768" width="1600" height="10" fill="#A87A50" opacity="0.18"/><rect y="363" width="1600" height="10" fill="#A87A50" opacity="0.38"/><rect y="213" width="1600" height="3" fill="#A87A50" opacity="0.14"/><rect y="769" width="1600" height="11" fill="#2C1A0E" opacity="0.17"/><rect y="191" width="1600" height="8" fill="#A87A50" opacity="0.21"/><rect y="585" width="1600" height="2" fill="#A87A50" opacity="0.30"/><rect y="666" width="1600" height="2" fill="#A87A50" opacity="0.18"/><rect y="45" width="1600" height="9" fill="#2C1A0E" opacity="0.20"/><rect y="1184" width="1600" height="11" fill="#2C1A0E" opacity="0.17"/><rect y="435" width="1600" height="7" fill="#A87A50" opacity="0.40"/><rect y="844" width="1600" height="14" fill="#A87A50" opacity="0.29"/><rect y="281" width="1600" height="4" fill="#A87A50" opacity="0.24"/><rect y="650" width="1600" height="2" fill="#2C1A0E" opacity="0.24"/><rect y="1007" width="1600" height="6" fill="#A87A50" opacity="0.20"/><rect y="173" width="1600" height="16" fill="#2C1A0E" opacity="0.37"/><rect y="409" width="1600" height="15" fill="#A87A50" opacity="0.39"/><rect y="199" width="1600" height="4" fill="#A87A50" opacity="0.28"/><rect y="491" width="1600" height="9" fill="#A87A50" opacity="0.15"/><rect y="209" width="1600" height="13" fill="#A87A50" opacity="0.40"/><rect y="718" width="1600" height="5" fill="#A87A50" opacity="0.13"/><rect y="958" width="1600" height="9" fill="#2C1A0E" opacity="0.36"/><rect y="413" width="1600" height="14" fill="#2C1A0E" opacity="0.19"/><rect y="324" width="1600" height="8" fill="#2C1A0E" opacity="0.30"/><rect y="950" width="1600" height="3" fill="#A87A50" opacity="0.12"/><rect y="272" width="1600" height="13" fill="#A87A50" opacity="0.27"/><rect y="1013" width="1600" height="3" fill="#A87A50" opacity="0.26"/><rect y="979" width="1600" height="10" fill="#A87A50" opacity="0.39"/><rect y="943" width="1600" height="11" fill="#A87A50" opacity="0.24"/><rect y="1083" width="1600" height="6" fill="#A87A50" opacity="0.19"/><rect y="889" width="1600" height="10" fill="#2C1A0E" opacity="0.16"/><rect y="779" width="1600" height="10" fill="#2C1A0E" opacity="0.28"/><rect y="1111" width="1600" height="8" fill="#A87A50" opacity="0.28"/><rect y="144" width="1600" height="11" fill="#2C1A0E" opacity="0.16"/><rect y="329" width="1600" height="6" fill="#2C1A0E" opacity="0.19"/><rect y="351" width="1600" height="14" fill="#2C1A0E" opacity="0.36"/><rect y="95" width="1600" height="5" fill="#A87A50" opacity="0.39"/><rect y="762" width="1600" height="6" fill="#2C1A0E" opacity="0.23"/><rect y="364" width="1600" height="5" fill="#A87A50" opacity="0.29"/><rect y="1091" width="1600" height="6" fill="#2C1A0E" opacity="0.23"/><rect y="991" width="1600" height="12" fill="#2C1A0E" opacity="0.18"/><rect y="668" width="1600" height="15" fill="#2C1A0E" opacity="0.22"/><rect y="766" width="1600" height="14" fill="#2C1A0E" opacity="0.14"/><rect y="1181" width="1600" height="11" fill="#2C1A0E" opacity="0.28"/><rect y="1127" width="1600" height="5" fill="#A87A50" opacity="0.13"/><rect y="560" width="1600" height="8" fill="#A87A50" opacity="0.34"/><rect y="935" width="1600" height="11" fill="#2C1A0E" opacity="0.14"/><rect y="747" width="1600" height="13" fill="#2C1A0E" opacity="0.17"/><rect y="8" width="1600" height="6" fill="#2C1A0E" opacity="0.28"/><ellipse cx="1040" cy="757" rx="112" ry="70" fill="none" stroke="#2C1A0E" stroke-width="2.3" opacity="0.35"/></g>
<rect width="1600" height="1200" fill="url(#v)"/>
</svg>
