<svg xmlns="http://www.w3.org/2000/svg" width="1200" height="1600" viewBox="0 0 1200 1600" role="img" aria-label="Placeholder">
<defs>
<linearGradient id="g" gradientTransform="rotate(32)"><stop offset="0" stop-color="#4A3320"/><stop offset="1" stop-color="#8B5A2B"/></linearGradient>
<filter id="f" x="-5%" y="-10%" width="110%" height="120%"><feTurbulence type="fractalNoise" baseFrequency="0.004 0.08" numOctaves="3" seed="183" result="t"/><feDisplacementMap in="SourceGraphic" in2="t" scale="42" xChannelSelector="R" yChannelSelector="G"/></filter>
<radialGradient id="v" cx="0.51" cy="0.15" r="1"><stop offset="0" stop-color="#E9A23B" stop-opacity="0.16"/><stop offset="0.55" stop-color="#0F0D0B" stop-opacity="0.1"/><stop offset="1" stop-color="#0F0D0B" stop-opacity="0.6"/></radialGradient>
</defs>
<rect width="1200" height="1600" fill="url(#g)"/>
<g filter="url(#f)"><rect y="1023" width="1200" height="10" fill="#A87A50" opacity="0.17"/><rect y="876" width="1200" height="4" fill="#A87A50" opacity="0.35"/><rect y="672" width="1200" height="12" fill="#2C1A0E" opacity="0.26"/><rect y="1141" width="1200" height="14" fill="#2C1A0E" opacity="0.23"/><rect y="1352" width="1200" height="8" fill="#A87A50" opacity="0.14"/><rect y="650" width="1200" height="15" fill="#A87A50" opacity="0.18"/><rect y="210" width="1200" height="3" fill="#A87A50" opacity="0.18"/><rect y="933" width="1200" height="13" fill="#A87A50" opacity="0.21"/><rect y="659" width="1200" height="8" fill="#2C1A0E" opacity="0.31"/><rect y="1337" width="1200" height="6" fill="#A87A50" opacity="0.41"/><rect y="1136" width="1200" height="13" fill="#A87A50" opacity="0.30"/><rect y="1134" width="1200" height="4" fill="#A87A50" opacity="0.36"/><rect y="1403" width="1200" height="6" fill="#A87A50" opacity="0.36"/><rect y="844" width="1200" height="3" fill="#A87A50" opacity="0.36"/><rect y="430" width="1200" height="10" fill="#A87A50" opacity="0.41"/><rect y="1400" width="1200" height="11" fill="#A87A50" opacity="0.17"/><rect y="276" width="1200" height="13" fill="#2C1A0E" opacity="0.33"/><rect y="399" width="1200" height="13" fill="#A87A50" opacity="0.16"/><rect y="77" width="1200" height="13" fill="#2C1A0E" opacity="0.17"/><rect y="454" width="1200" height="14" fill="#2C1A0E" opacity="0.29"/><rect y="1060" width="1200" height="11" fill="#2C1A0E" opacity="0.30"/><rect y="272" width="1200" height="4" fill="#A87A50" opacity="0.28"/><rect y="528" width="1200" height="15" fill="#2C1A0E" opacity="0.17"/><rect y="1008" width="1200" height="7" fill="#A87A50" opacity="0.30"/><rect y="177" width="1200" height="5" fill="#A87A50" opacity="0.20"/><rect y="269" width="1200" height="6" fill="#A87A50" opacity="0.20"/><rect y="1512" width="1200" height="9" fill="#A87A50" opacity="0.17"/><rect y="320" width="1200" height="12" fill="#A87A50" opacity="0.21"/><rect y="600" width="1200" height="14" fill="#2C1A0E" opacity="0.37"/><rect y="1232" width="1200" height="9" fill="#A87A50" opacity="0.33"/><rect y="1531" width="1200" height="8" fill="#2C1A0E" opacity="0.30"/><rect y="407" width="1200" height="3" fill="#A87A50" opacity="0.14"/><rect y="988" width="1200" height="13" fill="#A87A50" opacity="0.40"/><rect y="468" width="1200" height="8" fill="#2C1A0E" opacity="0.16"/><rect y="1393" width="1200" height="5" fill="#A87A50" opacity="0.20"/><rect y="1440" width="1200" height="13" fill="#A87A50" opacity="0.36"/><rect y="612" width="1200" height="5" fill="#2C1A0E" opacity="0.16"/><rect y="407" width="1200" height="12" fill="#2C1A0E" opacity="0.25"/><rect y="267" width="1200" height="8" fill="#2C1A0E" opacity="0.16"/><rect y="630" width="1200" height="2" fill="#2C1A0E" opacity="0.37"/><rect y="618" width="1200" height="7" fill="#2C1A0E" opacity="0.17"/><rect y="431" width="1200" height="3" fill="#A87A50" opacity="0.17"/><rect y="698" width="1200" height="12" fill="#2C1A0E" opacity="0.38"/><rect y="357" width="1200" height="12" fill="#A87A50" opacity="0.13"/><rect y="1185" width="1200" height="8" fill="#A87A50" opacity="0.34"/><rect y="368" width="1200" height="5" fill="#A87A50" opacity="0.20"/><rect y="1232" width="1200" height="2" fill="#A87A50" opacity="0.37"/><rect y="1517" width="1200" height="10" fill="#A87A50" opacity="0.27"/><rect y="301" width="1200" height="3" fill="#A87A50" opacity="0.13"/><rect y="61" width="1200" height="11" fill="#A87A50" opacity="0.21"/><rect y="1176" width="1200" height="12" fill="#2C1A0E" opacity="0.35"/><rect y="1583" width="1200" height="12" fill="#A87A50" opacity="0.30"/><rect y="488" width="1200" height="6" fill="#A87A50" opacity="0.20"/><rect y="465" width="1200" height="7" fill="#2C1A0E" opacity="0.40"/><rect y="967" width="1200" height="11" fill="#A87A50" opacity="0.19"/><rect y="1144" width="1200" height="10" fill="#2C1A0E" opacity="0.12"/><rect y="294" width="1200" height="9" fill="#2C1A0E" opacity="0.37"/><rect y="330" width="1200" height="3" fill="#A87A50" opacity="0.36"/><rect y="835" width="1200" height="3" fill="#2C1A0E" opacity="0.27"/><rect y="888" width="1200" height="7" fill="#A87A50" opacity="0.28"/><rect y="224" width="1200" height="12" fill="#2C1A0E" opacity="0.12"/><rect y="171" width="1200" height="12" fill="#A87A50" opacity="0.19"/><rect y="329" width="1200" height="9" fill="#2C1A0E" opacity="0.22"/><rect y="1526" width="1200" height="6" fill="#2C1A0E" opacity="0.34"/><rect y="831" width="1200" height="11" fill="#A87A50" opacity="0.35"/><rect y="967" width="1200" height="3" fill="#A87A50" opacity="0.37"/><rect y="1479" width="1200" height="6" fill="#2C1A0E" opacity="0.24"/><rect y="1407" width="1200" height="7" fill="#2C1A0E" opacity="0.36"/><rect y="1377" width="1200" height="3" fill="#A87A50" opacity="0.29"/><rect y="1328" width="1200" height="15" fill="#2C1A0E" opacity="0.27"/><rect y="1113" width="1200" height="13" fill="#2C1A0E" opacity="0.34"/><rect y="463" width="1200" height="4" fill="#2C1A0E" opacity="0.21"/><rect y="814" width="1200" height="13" fill="#2C1A0E" opacity="0.26"/><rect y="1335" width="1200" height="3" fill="#A87A50" opacity="0.37"/><rect y="1518" width="1200" height="11" fill="#2C1A0E" opacity="0.22"/><rect y="1385" width="1200" height="8" fill="#A87A50" opacity="0.41"/><rect y="282" width="1200" height="8" fill="#A87A50" opacity="0.20"/><rect y="291" width="1200" height="10" fill="#2C1A0E" opacity="0.27"/><rect y="846" width="1200" height="7" fill="#A87A50" opacity="0.35"/><rect y="886" width="1200" height="6" fill="#A87A50" opacity="0.32"/><rect y="1485" width="1200" height="9" fill="#A87A50" opacity="0.18"/><rect y="1014" width="1200" height="10" fill="#2C1A0E" opacity="0.20"/><rect y="1070" width="1200" height="6" fill="#2C1A0E" opacity="0.39"/><rect y="748" width="1200" height="6" fill="#2C1A0E" opacity="0.40"/><rect y="904" width="1200" height="5" fill="#A87A50" opacity="0.17"/><rect y="439" width="1200" height="8" fill="#A87A50" opacity="0.14"/><rect y="40" width="1200" height="8" fill="#2C1A0E" opacity="0.30"/><rect y="1596" width="1200" height="14" fill="#A87A50" opacity="0.40"/><rect y="435" width="1200" height="12" fill="#A87A50" opacity="0.17"/><rect y="1025" width="1200" height="13" fill="#2C1A0E" opacity="0.37"/><rect y="683" width="1200" height="15" fill="#A87A50" opacity="0.27"/><rect y="78" width="1200" height="7" fill="#A87A50" opacity="0.33"/><rect y="1505" width="1200" height="9" fill="#A87A50" opacity="0.24"/><rect y="353" width="1200" height="6" fill="#2C1A0E" opacity="0.38"/><rect y="1260" width="1200" height="4" fill="#2C1A0E" opacity="0.19"/><rect y="95" width="1200" height="15" fill="#A87A50" opacity="0.12"/><rect y="623" width="1200" height="15" fill="#A87A50" opacity="0.30"/><rect y="1135" width="1200" height="10" fill="#A87A50" opacity="0.37"/><rect y="1535" width="1200" height="10" fill="#A87A50" opacity="0.19"/><rect y="730" width="1200" height="8" fill="#2C1A0E" opacity="0.19"/><rect y="1512" width="1200" height="12" fill="#A87A50" opacity="0.26"/><rect y="253" width="1200" height="11" fill="#2C1A0E" opacity="0.31"/></g>
<rect width="1200" height="1600" fill="url(#v)"/>
</svg>
