<svg xmlns="http://www.w3.org/2000/svg" width="1600" height="1200" viewBox="0 0 1600 1200" role="img" aria-label="Mudroom Bench and Lockers: elevation drawing" style="--n:59">
<style>
.o{fill:none;stroke:#E9A23B;stroke-width:3.2;stroke-linecap:round;stroke-linejoin:round;stroke-opacity:.9}
.s{fill:none;stroke:#C99A66;stroke-width:2;stroke-linecap:round;stroke-linejoin:round;stroke-opacity:.6}
.h{fill:none;stroke:#E9A23B;stroke-width:1.4;stroke-linecap:round;stroke-opacity:.26}
.f{fill:#E9A23B;fill-opacity:.07;stroke:none}
.f2{fill:#E9A23B;fill-opacity:.14;stroke:none}
.x{fill:none;stroke:#C99A66;stroke-width:2;stroke-dasharray:10 9;stroke-linecap:round;stroke-opacity:.6}
.d{fill:none;stroke:#F3EBE0;stroke-width:1.5;stroke-linecap:round;stroke-opacity:.38}
.dot{fill:#F3EBE0;fill-opacity:.5;stroke:none}
.frame{fill:none;stroke:#F3EBE0;stroke-width:1.5;stroke-opacity:.16}
</style>
<defs>
<pattern id="soof-grid" width="40" height="40" patternUnits="userSpaceOnUse"><circle cx="20" cy="20" r="1.3" fill="#F3EBE0" fill-opacity=".07"/></pattern>
<radialGradient id="soof-lamp" cx="0.88" cy="-0.08" r="0.9"><stop offset="0" stop-color="#E9A23B" stop-opacity=".22"/><stop offset=".45" stop-color="#E9A23B" stop-opacity=".06"/><stop offset="1" stop-color="#E9A23B" stop-opacity="0"/></radialGradient>
<filter id="soof-paper" x="0" y="0" width="100%" height="100%"><feTurbulence type="fractalNoise" baseFrequency=".9" numOctaves="2" seed="139" stitchTiles="stitch"/><feColorMatrix values="0 0 0 0 .95 0 0 0 0 .92 0 0 0 0 .88 0 0 0 .035 0"/></filter>
</defs>
<rect width="1600" height="1200" fill="#171310"/>
<g class="ground"><rect width="1600" height="1200" fill="url(#soof-grid)"/><rect width="1600" height="1200" fill="url(#soof-lamp)"/></g>
<g class="dust"><circle cx="505.2" cy="790" r="2.2" fill="#E9A23B" fill-opacity="0.31"/><circle cx="1379" cy="201.3" r="1.6" fill="#E9A23B" fill-opacity="0.50"/><circle cx="804.2" cy="909.3" r="1.4" fill="#E9A23B" fill-opacity="0.34"/><circle cx="727.4" cy="470.6" r="2.5" fill="#E9A23B" fill-opacity="0.24"/><circle cx="790" cy="891.5" r="2.4" fill="#E9A23B" fill-opacity="0.20"/><circle cx="314.8" cy="920.1" r="3.1" fill="#E9A23B" fill-opacity="0.30"/><circle cx="784.1" cy="511.6" r="1.5" fill="#E9A23B" fill-opacity="0.51"/><circle cx="1051.5" cy="423.8" r="1.2" fill="#E9A23B" fill-opacity="0.48"/><circle cx="1342.1" cy="444.5" r="1.4" fill="#E9A23B" fill-opacity="0.51"/><circle cx="981.4" cy="1046.2" r="1.7" fill="#E9A23B" fill-opacity="0.26"/><circle cx="1543.5" cy="356.7" r="1.7" fill="#E9A23B" fill-opacity="0.24"/><circle cx="94.6" cy="763.6" r="1.6" fill="#E9A23B" fill-opacity="0.16"/><circle cx="1263.3" cy="273.8" r="2.5" fill="#E9A23B" fill-opacity="0.40"/><circle cx="276.2" cy="1041.6" r="1.9" fill="#E9A23B" fill-opacity="0.47"/><circle cx="807.7" cy="780.1" r="2.1" fill="#E9A23B" fill-opacity="0.24"/><circle cx="928" cy="822" r="1.7" fill="#E9A23B" fill-opacity="0.14"/><circle cx="396.2" cy="885.6" r="2.2" fill="#E9A23B" fill-opacity="0.48"/><circle cx="650" cy="1024.2" r="1.9" fill="#E9A23B" fill-opacity="0.46"/><circle cx="1214.9" cy="277.4" r="2.5" fill="#E9A23B" fill-opacity="0.34"/><circle cx="866.9" cy="660.6" r="1.8" fill="#E9A23B" fill-opacity="0.28"/><circle cx="957.6" cy="529.4" r="2.3" fill="#E9A23B" fill-opacity="0.33"/><circle cx="382.3" cy="698.5" r="3.5" fill="#E9A23B" fill-opacity="0.13"/><circle cx="1026.6" cy="616.7" r="3.8" fill="#E9A23B" fill-opacity="0.51"/><circle cx="57.7" cy="815.3" r="1.4" fill="#E9A23B" fill-opacity="0.12"/><circle cx="118.4" cy="989.1" r="1.6" fill="#E9A23B" fill-opacity="0.41"/><circle cx="1000.9" cy="961.2" r="2.3" fill="#E9A23B" fill-opacity="0.39"/><circle cx="303.9" cy="982" r="2.2" fill="#E9A23B" fill-opacity="0.21"/><circle cx="423" cy="654.3" r="2.7" fill="#E9A23B" fill-opacity="0.22"/><circle cx="437.9" cy="1019" r="2.1" fill="#E9A23B" fill-opacity="0.42"/><circle cx="1649.3" cy="344.8" r="1.2" fill="#E9A23B" fill-opacity="0.28"/><circle cx="1182.9" cy="384.1" r="2" fill="#E9A23B" fill-opacity="0.22"/><circle cx="616.8" cy="587.1" r="1.6" fill="#E9A23B" fill-opacity="0.49"/><circle cx="1417.9" cy="245.4" r="1.3" fill="#E9A23B" fill-opacity="0.22"/><circle cx="1334.4" cy="-82.8" r="1.3" fill="#E9A23B" fill-opacity="0.17"/><circle cx="1197.5" cy="415.4" r="1.3" fill="#E9A23B" fill-opacity="0.31"/><circle cx="887.5" cy="-56.4" r="2" fill="#E9A23B" fill-opacity="0.32"/><circle cx="261.7" cy="522.1" r="1.8" fill="#E9A23B" fill-opacity="0.12"/><circle cx="1130" cy="-208.2" r="1.4" fill="#E9A23B" fill-opacity="0.22"/><circle cx="790.4" cy="342.3" r="1.8" fill="#E9A23B" fill-opacity="0.30"/><circle cx="867.4" cy="304.3" r="2.1" fill="#E9A23B" fill-opacity="0.18"/><circle cx="933.1" cy="612.7" r="2.9" fill="#E9A23B" fill-opacity="0.36"/><circle cx="1553.5" cy="437.3" r="3.8" fill="#E9A23B" fill-opacity="0.42"/></g>
<rect class="frame" pathLength="1" style="--k:0" x="54" y="54" width="1492" height="1092"/><line class="frame" pathLength="1" style="--k:1" x1="54" y1="1054" x2="1546" y2="1054"/>
<defs><pattern id="soof-hatch14" width="14" height="14" patternUnits="userSpaceOnUse" patternTransform="rotate(45)"><line class="h" x1="0" y1="0" x2="0" y2="14"/></pattern></defs>
<g class="drawing"><line class="s" pathLength="1" style="--k:2" x1="94" y1="145.1" x2="1506" y2="145.1"/><line class="o" pathLength="1" style="--k:3" x1="94" y1="962.9" x2="1506" y2="962.9"/><rect class="hh" fill="url(#soof-hatch14)" x="94" y="962.9" width="1412" height="30.7"/><clipPath id="soof-wallML"><rect x="288.9" y="145.1" width="1022.2" height="817.8"/></clipPath><g clip-path="url(#soof-wallML)"><line class="h" x1="288.9" y1="192" x2="1311.1" y2="192"/><line class="h" x1="288.9" y1="194.1" x2="1311.1" y2="194.1"/><line class="h" x1="288.9" y1="238.8" x2="1311.1" y2="238.8"/><line class="h" x1="288.9" y1="240.9" x2="1311.1" y2="240.9"/><line class="h" x1="288.9" y1="285.7" x2="1311.1" y2="285.7"/><line class="h" x1="288.9" y1="287.8" x2="1311.1" y2="287.8"/><line class="h" x1="288.9" y1="332.5" x2="1311.1" y2="332.5"/><line class="h" x1="288.9" y1="334.6" x2="1311.1" y2="334.6"/><line class="h" x1="288.9" y1="379.4" x2="1311.1" y2="379.4"/><line class="h" x1="288.9" y1="381.5" x2="1311.1" y2="381.5"/><line class="h" x1="288.9" y1="426.2" x2="1311.1" y2="426.2"/><line class="h" x1="288.9" y1="428.4" x2="1311.1" y2="428.4"/><line class="h" x1="288.9" y1="473.1" x2="1311.1" y2="473.1"/><line class="h" x1="288.9" y1="475.2" x2="1311.1" y2="475.2"/><line class="h" x1="288.9" y1="519.9" x2="1311.1" y2="519.9"/><line class="h" x1="288.9" y1="522.1" x2="1311.1" y2="522.1"/><line class="h" x1="288.9" y1="566.8" x2="1311.1" y2="566.8"/><line class="h" x1="288.9" y1="568.9" x2="1311.1" y2="568.9"/><line class="h" x1="288.9" y1="613.6" x2="1311.1" y2="613.6"/><line class="h" x1="288.9" y1="615.8" x2="1311.1" y2="615.8"/><line class="h" x1="288.9" y1="660.5" x2="1311.1" y2="660.5"/><line class="h" x1="288.9" y1="662.6" x2="1311.1" y2="662.6"/><line class="h" x1="288.9" y1="707.3" x2="1311.1" y2="707.3"/><line class="h" x1="288.9" y1="709.5" x2="1311.1" y2="709.5"/><line class="h" x1="288.9" y1="754.2" x2="1311.1" y2="754.2"/><line class="h" x1="288.9" y1="756.3" x2="1311.1" y2="756.3"/><line class="h" x1="288.9" y1="801" x2="1311.1" y2="801"/><line class="h" x1="288.9" y1="803.2" x2="1311.1" y2="803.2"/><line class="h" x1="288.9" y1="847.9" x2="1311.1" y2="847.9"/><line class="h" x1="288.9" y1="850" x2="1311.1" y2="850"/><line class="h" x1="288.9" y1="894.7" x2="1311.1" y2="894.7"/><line class="h" x1="288.9" y1="896.9" x2="1311.1" y2="896.9"/><line class="h" x1="288.9" y1="941.6" x2="1311.1" y2="941.6"/><line class="h" x1="288.9" y1="943.7" x2="1311.1" y2="943.7"/></g><rect class="s" pathLength="1" style="--k:4" x="288.9" y="145.1" width="1022.2" height="817.8"/><rect class="o" pathLength="1" style="--k:5" x="391.1" y="809.6" width="817.8" height="12.8"/><rect class="f2" x="391.1" y="809.6" width="817.8" height="12.8"/><rect class="o" pathLength="1" style="--k:6" x="391.1" y="822.3" width="817.8" height="136.3"/><rect class="f" x="391.1" y="822.3" width="817.8" height="136.3"/><line class="x" x1="391.1" y1="958.6" x2="1208.9" y2="958.6"/><rect class="o" pathLength="1" style="--k:7" x="387.9" y="247.3" width="6.4" height="562.2"/><rect class="o" pathLength="1" style="--k:8" x="592.4" y="247.3" width="6.4" height="562.2"/><rect class="o" pathLength="1" style="--k:9" x="796.8" y="247.3" width="6.4" height="562.2"/><rect class="o" pathLength="1" style="--k:10" x="1001.3" y="247.3" width="6.4" height="562.2"/><rect class="o" pathLength="1" style="--k:11" x="1205.7" y="247.3" width="6.4" height="562.2"/><rect class="o" pathLength="1" style="--k:12" x="384.7" y="234.6" width="830.6" height="12.8"/><path class="s" pathLength="1" style="--k:13" d="M384.7 234.6q0 -21.3 -21.3 -21.3H1236.6q-21.3 0 -21.3 21.3"/><rect class="s" pathLength="1" style="--k:14" x="394.3" y="349.6" width="198.1" height="6.4"/><path class="o" pathLength="1" style="--k:15" d="M453.9 451.8v25.6q0 12.8 12.8 12.8"/><path class="o" pathLength="1" style="--k:16" d="M539.1 451.8v25.6q0 12.8 12.8 12.8"/><rect class="s" pathLength="1" style="--k:17" x="446.3" y="446.7" width="15.3" height="5.1"/><rect class="s" pathLength="1" style="--k:18" x="531.5" y="446.7" width="15.3" height="5.1"/><rect class="s" pathLength="1" style="--k:19" x="598.8" y="349.6" width="198.1" height="6.4"/><path class="o" pathLength="1" style="--k:20" d="M658.4 451.8v25.6q0 12.8 12.8 12.8"/><path class="o" pathLength="1" style="--k:21" d="M743.6 451.8v25.6q0 12.8 12.8 12.8"/><rect class="s" pathLength="1" style="--k:22" x="650.7" y="446.7" width="15.3" height="5.1"/><rect class="s" pathLength="1" style="--k:23" x="735.9" y="446.7" width="15.3" height="5.1"/><rect class="s" pathLength="1" style="--k:24" x="803.2" y="349.6" width="198.1" height="6.4"/><path class="o" pathLength="1" style="--k:25" d="M862.8 451.8v25.6q0 12.8 12.8 12.8"/><path class="o" pathLength="1" style="--k:26" d="M948 451.8v25.6q0 12.8 12.8 12.8"/><rect class="s" pathLength="1" style="--k:27" x="855.2" y="446.7" width="15.3" height="5.1"/><rect class="s" pathLength="1" style="--k:28" x="940.3" y="446.7" width="15.3" height="5.1"/><rect class="s" pathLength="1" style="--k:29" x="1007.6" y="349.6" width="198.1" height="6.4"/><path class="o" pathLength="1" style="--k:30" d="M1067.3 451.8v25.6q0 12.8 12.8 12.8"/><path class="o" pathLength="1" style="--k:31" d="M1152.5 451.8v25.6q0 12.8 12.8 12.8"/><rect class="s" pathLength="1" style="--k:32" x="1059.6" y="446.7" width="15.3" height="5.1"/><rect class="s" pathLength="1" style="--k:33" x="1144.8" y="446.7" width="15.3" height="5.1"/><path class="x" d="M800 809.6A204.4 204.4 0 0 0 595.6 605.1"/><line class="x" x1="595.6" y1="809.6" x2="595.6" y2="605.1"/><line class="d" pathLength="1" style="--k:34" x1="342.9" y1="962.9" x2="392.9" y2="962.9"/><line class="d" pathLength="1" style="--k:35" x1="342.9" y1="809.6" x2="392.9" y2="809.6"/><line class="d" pathLength="1" style="--k:36" x1="380.9" y1="968.9" x2="380.9" y2="803.6"/><line class="d" pathLength="1" style="--k:37" x1="373.9" y1="969.9" x2="387.9" y2="955.9"/><line class="d" pathLength="1" style="--k:38" x1="373.9" y1="816.6" x2="387.9" y2="802.6"/><g transform="translate(390.8 886.2) rotate(-90) translate(0 6.5)"><g class="t" fill="#F3EBE0" fill-opacity="0.75"><use href="#soof-g259" transform="translate(-14 0) scale(0.00879 -0.00879)"/><use href="#soof-g266" transform="translate(-6.1 0) scale(0.00879 -0.00879)"/><use href="#soof-g355" transform="translate(5.6 0) scale(0.00879 -0.00879)"/></g></g><line class="d" pathLength="1" style="--k:39" x1="800" y1="122.4" x2="800" y2="85.6"/><line class="d" pathLength="1" style="--k:40" x1="1004.4" y1="122.4" x2="1004.4" y2="85.6"/><line class="d" pathLength="1" style="--k:41" x1="794" y1="73.6" x2="1010.4" y2="73.6"/><line class="d" pathLength="1" style="--k:42" x1="793" y1="66.6" x2="807" y2="80.6"/><line class="d" pathLength="1" style="--k:43" x1="997.4" y1="66.6" x2="1011.4" y2="80.6"/><g transform="translate(902.2 83.5) rotate(0) translate(0 6.5)"><g class="t" fill="#F3EBE0" fill-opacity="0.75"><use href="#soof-g260" transform="translate(-16 0) scale(0.00879 -0.00879)"/><use href="#soof-g262" transform="translate(-4.5 0) scale(0.00879 -0.00879)"/><use href="#soof-g355" transform="translate(7.7 0) scale(0.00879 -0.00879)"/></g></g><line class="d" pathLength="1" style="--k:44" x1="1268" y1="962.9" x2="1226" y2="962.9"/><line class="d" pathLength="1" style="--k:45" x1="1268" y1="213.3" x2="1226" y2="213.3"/><line class="d" pathLength="1" style="--k:46" x1="1214" y1="968.9" x2="1214" y2="207.3"/><line class="d" pathLength="1" style="--k:47" x1="1207" y1="969.9" x2="1221" y2="955.9"/><line class="d" pathLength="1" style="--k:48" x1="1207" y1="220.3" x2="1221" y2="206.3"/><g transform="translate(1223.9 588.1) rotate(-90) translate(0 6.5)"><g class="t" fill="#F3EBE0" fill-opacity="0.75"><use href="#soof-g265" transform="translate(-23 0) scale(0.00879 -0.00879)"/><use href="#soof-g354" transform="translate(-12.3 0) scale(0.00879 -0.00879)"/><use href="#soof-g344" transform="translate(-6.4 0) scale(0.00879 -0.00879)"/><use href="#soof-g262" transform="translate(2.5 0) scale(0.00879 -0.00879)"/><use href="#soof-g355" transform="translate(14.6 0) scale(0.00879 -0.00879)"/></g></g><circle class="dot" cx="748.9" cy="682.8" r="3"/><line class="d" pathLength="1" style="--k:49" x1="748.9" y1="682.8" x2="922.7" y2="543.8"/><line class="d" pathLength="1" style="--k:50" x1="922.7" y1="543.8" x2="1012.7" y2="543.8"/><g class="t" fill="#F3EBE0" fill-opacity="0.8"><use href="#soof-g55" transform="translate(930.7 535.8) scale(0.00928 -0.00928)"/><use href="#soof-g41" transform="translate(942.9 535.8) scale(0.00928 -0.00928)"/><use href="#soof-g34" transform="translate(949.6 535.8) scale(0.00928 -0.00928)"/><use href="#soof-g93" transform="translate(962.3 535.8) scale(0.00928 -0.00928)"/><use href="#soof-g344" transform="translate(976.1 535.8) scale(0.00928 -0.00928)"/><use href="#soof-g95" transform="translate(986.3 535.8) scale(0.00928 -0.00928)"/><use href="#soof-g84" transform="translate(1002 535.8) scale(0.00928 -0.00928)"/><use href="#soof-g90" transform="translate(1022.5 535.8) scale(0.00928 -0.00928)"/><use href="#soof-g23" transform="translate(1036.2 535.8) scale(0.00928 -0.00928)"/><use href="#soof-g2" transform="translate(1049.2 535.8) scale(0.00928 -0.00928)"/><use href="#soof-g93" transform="translate(1063.8 535.8) scale(0.00928 -0.00928)"/><use href="#soof-g362" transform="translate(1077.6 535.8) scale(0.00928 -0.00928)"/><use href="#soof-g16" transform="translate(1091.4 535.8) scale(0.00928 -0.00928)"/><use href="#soof-g66" transform="translate(1105.4 535.8) scale(0.00928 -0.00928)"/><use href="#soof-g66" transform="translate(1121.4 535.8) scale(0.00928 -0.00928)"/><use href="#soof-g93" transform="translate(1137.5 535.8) scale(0.00928 -0.00928)"/><use href="#soof-g90" transform="translate(1151.3 535.8) scale(0.00928 -0.00928)"/><use href="#soof-g16" transform="translate(1171.8 535.8) scale(0.00928 -0.00928)"/><use href="#soof-g23" transform="translate(1185.8 535.8) scale(0.00928 -0.00928)"/><use href="#soof-g55" transform="translate(1198.7 535.8) scale(0.00928 -0.00928)"/><use href="#soof-g66" transform="translate(1211 535.8) scale(0.00928 -0.00928)"/><use href="#soof-g112" transform="translate(1227 535.8) scale(0.00928 -0.00928)"/></g><circle class="dot" cx="450.7" cy="468.8" r="3"/><line class="d" pathLength="1" style="--k:51" x1="450.7" y1="468.8" x2="432" y2="109.3"/><line class="d" pathLength="1" style="--k:52" x1="432" y1="109.3" x2="522" y2="109.3"/><g class="t" fill="#F3EBE0" fill-opacity="0.8"><use href="#soof-g38" transform="translate(440 101.3) scale(0.00928 -0.00928)"/><use href="#soof-g66" transform="translate(455.6 101.3) scale(0.00928 -0.00928)"/><use href="#soof-g66" transform="translate(471.7 101.3) scale(0.00928 -0.00928)"/><use href="#soof-g52" transform="translate(487.7 101.3) scale(0.00928 -0.00928)"/><use href="#soof-g90" transform="translate(502 101.3) scale(0.00928 -0.00928)"/><use href="#soof-g41" transform="translate(522.6 101.3) scale(0.00928 -0.00928)"/><use href="#soof-g61" transform="translate(529.2 101.3) scale(0.00928 -0.00928)"/><use href="#soof-g93" transform="translate(545.1 101.3) scale(0.00928 -0.00928)"/><use href="#soof-g66" transform="translate(558.8 101.3) scale(0.00928 -0.00928)"/><use href="#soof-g90" transform="translate(581.8 101.3) scale(0.00928 -0.00928)"/><use href="#soof-g66" transform="translate(595.5 101.3) scale(0.00928 -0.00928)"/><use href="#soof-g55" transform="translate(611.5 101.3) scale(0.00928 -0.00928)"/><use href="#soof-g41" transform="translate(623.8 101.3) scale(0.00928 -0.00928)"/><use href="#soof-g21" transform="translate(630.4 101.3) scale(0.00928 -0.00928)"/><use href="#soof-g90" transform="translate(652.5 101.3) scale(0.00928 -0.00928)"/><use href="#soof-g38" transform="translate(666.2 101.3) scale(0.00928 -0.00928)"/><use href="#soof-g41" transform="translate(681.8 101.3) scale(0.00928 -0.00928)"/><use href="#soof-g84" transform="translate(688.5 101.3) scale(0.00928 -0.00928)"/><use href="#soof-g55" transform="translate(702.1 101.3) scale(0.00928 -0.00928)"/><use href="#soof-g2" transform="translate(714.4 101.3) scale(0.00928 -0.00928)"/><use href="#soof-g84" transform="translate(729 101.3) scale(0.00928 -0.00928)"/></g><circle class="dot" cx="1106.7" cy="960.8" r="3"/><line class="d" pathLength="1" style="--k:53" x1="1106.7" y1="960.8" x2="1229.3" y2="1044.7"/><line class="d" pathLength="1" style="--k:54" x1="1229.3" y1="1044.7" x2="1319.3" y2="1044.7"/><g class="t" fill="#F3EBE0" fill-opacity="0.8"><use href="#soof-g259" transform="translate(1237.3 1036.7) scale(0.00928 -0.00928)"/><use href="#soof-g340" transform="translate(1246.6 1036.7) scale(0.00928 -0.00928)"/><use href="#soof-g260" transform="translate(1254.9 1036.7) scale(0.00928 -0.00928)"/><use href="#soof-g355" transform="translate(1268.1 1036.7) scale(0.00928 -0.00928)"/><use href="#soof-g2" transform="translate(1285.3 1036.7) scale(0.00928 -0.00928)"/><use href="#soof-g16" transform="translate(1299.9 1036.7) scale(0.00928 -0.00928)"/><use href="#soof-g66" transform="translate(1313.9 1036.7) scale(0.00928 -0.00928)"/><use href="#soof-g109" transform="translate(1329.9 1036.7) scale(0.00928 -0.00928)"/><use href="#soof-g23" transform="translate(1344.5 1036.7) scale(0.00928 -0.00928)"/><use href="#soof-g93" transform="translate(1364.4 1036.7) scale(0.00928 -0.00928)"/><use href="#soof-g41" transform="translate(1378.1 1036.7) scale(0.00928 -0.00928)"/><use href="#soof-g55" transform="translate(1384.8 1036.7) scale(0.00928 -0.00928)"/><use href="#soof-g23" transform="translate(1397 1036.7) scale(0.00928 -0.00928)"/></g></g>
<g class="tb"><g class="t" fill="#F3EBE0" fill-opacity="0.42"><use href="#soof-g84" transform="translate(76 1088) scale(0.00635 -0.00635)"/><use href="#soof-g87" transform="translate(86.4 1088) scale(0.00635 -0.00635)"/><use href="#soof-g66" transform="translate(96.8 1088) scale(0.00635 -0.00635)"/><use href="#soof-g51" transform="translate(108.8 1088) scale(0.00635 -0.00635)"/><use href="#soof-g23" transform="translate(118.3 1088) scale(0.00635 -0.00635)"/><use href="#soof-g18" transform="translate(128.2 1088) scale(0.00635 -0.00635)"/><use href="#soof-g93" transform="translate(139.8 1088) scale(0.00635 -0.00635)"/></g><g class="t" fill="#F3EBE0" fill-opacity="0.92"><use href="#soof-g58" transform="translate(76 1122) scale(0.01270 -0.01270)"/><use href="#soof-g220" transform="translate(100 1122) scale(0.01270 -0.01270)"/><use href="#soof-g149" transform="translate(115.9 1122) scale(0.01270 -0.01270)"/><use href="#soof-g210" transform="translate(132.3 1122) scale(0.01270 -0.01270)"/><use href="#soof-g195" transform="translate(142.6 1122) scale(0.01270 -0.01270)"/><use href="#soof-g195" transform="translate(158.8 1122) scale(0.01270 -0.01270)"/><use href="#soof-g187" transform="translate(174.9 1122) scale(0.01270 -0.01270)"/><use href="#soof-g16" transform="translate(206 1122) scale(0.01270 -0.01270)"/><use href="#soof-g151" transform="translate(223.5 1122) scale(0.01270 -0.01270)"/><use href="#soof-g190" transform="translate(239.2 1122) scale(0.01270 -0.01270)"/><use href="#soof-g146" transform="translate(255.1 1122) scale(0.01270 -0.01270)"/><use href="#soof-g164" transform="translate(270.5 1122) scale(0.01270 -0.01270)"/><use href="#soof-g130" transform="translate(294.2 1122) scale(0.01270 -0.01270)"/><use href="#soof-g190" transform="translate(309.3 1122) scale(0.01270 -0.01270)"/><use href="#soof-g149" transform="translate(325.2 1122) scale(0.01270 -0.01270)"/><use href="#soof-g55" transform="translate(349.5 1122) scale(0.01270 -0.01270)"/><use href="#soof-g195" transform="translate(364.7 1122) scale(0.01270 -0.01270)"/><use href="#soof-g146" transform="translate(380.8 1122) scale(0.01270 -0.01270)"/><use href="#soof-g180" transform="translate(396.2 1122) scale(0.01270 -0.01270)"/><use href="#soof-g151" transform="translate(411 1122) scale(0.01270 -0.01270)"/><use href="#soof-g210" transform="translate(426.6 1122) scale(0.01270 -0.01270)"/><use href="#soof-g213" transform="translate(436.9 1122) scale(0.01270 -0.01270)"/></g><line class="frame" pathLength="1" style="--k:55" x1="561.3" y1="1054" x2="561.3" y2="1146"/><g class="t" fill="#F3EBE0" fill-opacity="0.42"><use href="#soof-g55" transform="translate(583.3 1088) scale(0.00635 -0.00635)"/><use href="#soof-g66" transform="translate(592.7 1088) scale(0.00635 -0.00635)"/><use href="#soof-g18" transform="translate(604.7 1088) scale(0.00635 -0.00635)"/><use href="#soof-g2" transform="translate(616.3 1088) scale(0.00635 -0.00635)"/><use href="#soof-g93" transform="translate(627.4 1088) scale(0.00635 -0.00635)"/><use href="#soof-g41" transform="translate(637.8 1088) scale(0.00635 -0.00635)"/><use href="#soof-g66" transform="translate(643.4 1088) scale(0.00635 -0.00635)"/><use href="#soof-g61" transform="translate(655.4 1088) scale(0.00635 -0.00635)"/></g><g class="t" fill="#F3EBE0" fill-opacity="0.7"><use href="#soof-g58" transform="translate(583.3 1122) scale(0.01025 -0.01025)"/><use href="#soof-g220" transform="translate(603.3 1122) scale(0.01025 -0.01025)"/><use href="#soof-g210" transform="translate(616.8 1122) scale(0.01025 -0.01025)"/><use href="#soof-g210" transform="translate(625.7 1122) scale(0.01025 -0.01025)"/><use href="#soof-g240" transform="translate(634.7 1122) scale(0.01025 -0.01025)"/><use href="#soof-g213" transform="translate(647.5 1122) scale(0.01025 -0.01025)"/><use href="#soof-g230" transform="translate(659.7 1122) scale(0.01025 -0.01025)"/><use href="#soof-g167" transform="translate(672.5 1122) scale(0.01025 -0.01025)"/><use href="#soof-g183" transform="translate(678.7 1122) scale(0.01025 -0.01025)"/><use href="#soof-g183" transform="translate(684.8 1122) scale(0.01025 -0.01025)"/><use href="#soof-g151" transform="translate(690.9 1122) scale(0.01025 -0.01025)"/><use href="#soof-g362" transform="translate(704.2 1122) scale(0.01025 -0.01025)"/><use href="#soof-g84" transform="translate(718.3 1122) scale(0.01025 -0.01025)"/><use href="#soof-g2" transform="translate(732.7 1122) scale(0.01025 -0.01025)"/></g><line class="frame" pathLength="1" style="--k:56" x1="919.4" y1="1054" x2="919.4" y2="1146"/><g class="t" fill="#F3EBE0" fill-opacity="0.42"><use href="#soof-g21" transform="translate(941.4 1088) scale(0.00635 -0.00635)"/><use href="#soof-g87" transform="translate(952.8 1088) scale(0.00635 -0.00635)"/><use href="#soof-g2" transform="translate(963.3 1088) scale(0.00635 -0.00635)"/><use href="#soof-g112" transform="translate(974.3 1088) scale(0.00635 -0.00635)"/><use href="#soof-g41" transform="translate(989.2 1088) scale(0.00635 -0.00635)"/><use href="#soof-g61" transform="translate(994.8 1088) scale(0.00635 -0.00635)"/><use href="#soof-g35" transform="translate(1006.7 1088) scale(0.00635 -0.00635)"/></g><g class="t" fill="#F3EBE0" fill-opacity="0.7"><use href="#soof-g23" transform="translate(941.4 1122) scale(0.01025 -0.01025)"/><use href="#soof-g183" transform="translate(955 1122) scale(0.01025 -0.01025)"/><use href="#soof-g151" transform="translate(961.2 1122) scale(0.01025 -0.01025)"/><use href="#soof-g230" transform="translate(974.5 1122) scale(0.01025 -0.01025)"/><use href="#soof-g130" transform="translate(987.3 1122) scale(0.01025 -0.01025)"/><use href="#soof-g217" transform="translate(1000.2 1122) scale(0.01025 -0.01025)"/><use href="#soof-g167" transform="translate(1008.1 1122) scale(0.01025 -0.01025)"/><use href="#soof-g195" transform="translate(1014.2 1122) scale(0.01025 -0.01025)"/><use href="#soof-g190" transform="translate(1027.9 1122) scale(0.01025 -0.01025)"/></g><line class="frame" pathLength="1" style="--k:57" x1="1158.1" y1="1054" x2="1158.1" y2="1146"/><g class="t" fill="#F3EBE0" fill-opacity="0.42"><use href="#soof-g90" transform="translate(1180.1 1088) scale(0.00635 -0.00635)"/><use href="#soof-g18" transform="translate(1190.5 1088) scale(0.00635 -0.00635)"/><use href="#soof-g2" transform="translate(1202.1 1088) scale(0.00635 -0.00635)"/><use href="#soof-g55" transform="translate(1213.1 1088) scale(0.00635 -0.00635)"/><use href="#soof-g23" transform="translate(1222.6 1088) scale(0.00635 -0.00635)"/></g><g class="t" fill="#F3EBE0" fill-opacity="0.7"><use href="#soof-g259" transform="translate(1180.1 1122) scale(0.01025 -0.01025)"/><use href="#soof-g340" transform="translate(1189.7 1122) scale(0.01025 -0.01025)"/><use href="#soof-g260" transform="translate(1198.3 1122) scale(0.01025 -0.01025)"/><use href="#soof-g355" transform="translate(1212.1 1122) scale(0.01025 -0.01025)"/><use href="#soof-g375" transform="translate(1229.9 1122) scale(0.01025 -0.01025)"/><use href="#soof-g259" transform="translate(1251.8 1122) scale(0.01025 -0.01025)"/><use href="#soof-g354" transform="translate(1261.4 1122) scale(0.01025 -0.01025)"/><use href="#soof-g344" transform="translate(1268.8 1122) scale(0.01025 -0.01025)"/><use href="#soof-g258" transform="translate(1279.5 1122) scale(0.01025 -0.01025)"/><use href="#soof-g355" transform="translate(1293.8 1122) scale(0.01025 -0.01025)"/></g><line class="frame" pathLength="1" style="--k:58" x1="1367" y1="1054" x2="1367" y2="1146"/><g class="t" fill="#F3EBE0" fill-opacity="0.42"><use href="#soof-g90" transform="translate(1389 1088) scale(0.00635 -0.00635)"/><use href="#soof-g38" transform="translate(1399.4 1088) scale(0.00635 -0.00635)"/><use href="#soof-g23" transform="translate(1411.1 1088) scale(0.00635 -0.00635)"/><use href="#soof-g23" transform="translate(1421 1088) scale(0.00635 -0.00635)"/><use href="#soof-g93" transform="translate(1430.9 1088) scale(0.00635 -0.00635)"/></g><g class="t" fill="#F3EBE0" fill-opacity="0.7"><use href="#soof-g259" transform="translate(1389 1122) scale(0.01025 -0.01025)"/><use href="#soof-g340" transform="translate(1405.5 1122) scale(0.01025 -0.01025)"/><use href="#soof-g262" transform="translate(1421.1 1122) scale(0.01025 -0.01025)"/></g></g>
<rect class="paper" width="1600" height="1200" filter="url(#soof-paper)"/>
<defs><path id="soof-g259" d="M653 1490L653 0L466 0L466 1314L456 1314L96 1047L96 1251L420 1490Z"/><path id="soof-g266" d="M633 -20Q482 -20 366.5 33.5Q251 87 186.5 181Q122 275 122 396Q122 490 160 570.5Q198 651 264 705Q330 759 413 774L413 782Q304 810 240 903Q176 996 176 1114Q176 1228 235 1317.5Q294 1407 397 1458.5Q500 1510 633 1510Q764 1510 867 1458.5Q970 1407 1029.5 1317.5Q1089 1228 1089 1114Q1089 996 1024.5 903Q960 810 854 782L854 774Q935 759 1001 705Q1067 651 1106 570.5Q1145 490 1145 396Q1145 275 1079.5 181Q1014 87 898.5 33.5Q783 -20 633 -20ZM633 145Q732 145 804 177.5Q876 210 915.5 268.5Q955 327 955 406Q955 489 913 552.5Q871 616 798 652.5Q725 689 633 689Q539 689 466 652.5Q393 616 351 552.5Q309 489 309 406Q309 327 348 268.5Q387 210 460 177.5Q533 145 633 145ZM633 848Q712 848 773 879.5Q834 911 869.5 968Q905 1025 905 1100Q905 1175 871 1230Q837 1285 775.5 1315.5Q714 1346 633 1346Q551 1346 489.5 1315.5Q428 1285 394 1230Q360 1175 360 1100Q360 1025 394.5 968Q429 911 491 879.5Q553 848 633 848Z"/><path id="soof-g355" d="M232 923L210 1490L404 1490L382 923ZM572 923L550 1490L744 1490L722 923Z"/><path id="soof-g260" d="M154 0L154 137L649 674Q732 764 787 832Q842 900 870 961.5Q898 1023 898 1092Q898 1170 861 1227Q824 1284 761 1314.5Q698 1345 618 1345Q533 1345 470.5 1310.5Q408 1276 374 1213.5Q340 1151 340 1067L158 1067Q158 1199 219 1299Q280 1399 385 1454.5Q490 1510 623 1510Q756 1510 858.5 1454.5Q961 1399 1019.5 1305Q1078 1211 1078 1094Q1078 1013 1049 936.5Q1020 860 947 763Q874 666 742 526L416 179L416 167L1103 167L1103 0Z"/><path id="soof-g262" d="M120 303L120 458L772 1490L887 1490L887 1252L810 1252L323 482L323 470L1205 470L1205 303ZM821 0L821 349L822 422L822 1490L1003 1490L1003 0Z"/><path id="soof-g265" d="M200 0L862 1311L862 1323L98 1323L98 1490L1061 1490L1061 1313L400 0Z"/><path id="soof-g354" d="M232 923L210 1490L404 1490L382 923Z"/><path id="soof-g344" d="M798 719L798 553L144 553L144 719Z"/><path id="soof-g55" d="M180 0L180 1490L370 1490L370 168L1060 168L1060 0Z"/><path id="soof-g41" d="M370 1490L370 0L180 0L180 1490Z"/><path id="soof-g34" d="M180 0L180 1490L1081 1490L1081 1322L370 1322L370 812L1013 812L1013 644L370 644L370 0Z"/><path id="soof-g93" d="M98 1322L98 1490L1224 1490L1224 1322L757 1322L757 0L567 0L567 1322Z"/><path id="soof-g95" d="M763 -24Q587 -24 455.5 45Q324 114 252 234Q180 354 180 507L180 1490L370 1490L370 522Q370 415 417.5 331.5Q465 248 553 200Q641 152 763 152Q885 152 972.5 200Q1060 248 1107 331.5Q1154 415 1154 522L1154 1490L1344 1490L1344 507Q1344 354 1272 234Q1200 114 1069.5 45Q939 -24 763 -24Z"/><path id="soof-g84" d="M180 0L180 1490L690 1490Q864 1490 976.5 1426.5Q1089 1363 1143.5 1256Q1198 1149 1198 1016Q1198 883 1143.5 775Q1089 667 977 603Q865 539 691 539L330 539L330 706L682 706Q800 706 872 746.5Q944 787 976.5 857.5Q1009 928 1009 1016Q1009 1104 976.5 1173.5Q944 1243 871.5 1283Q799 1323 680 1323L370 1323L370 0Z"/><path id="soof-g90" d="M657 -26Q496 -26 377.5 26Q259 78 192 171.5Q125 265 116 390L311 390Q319 306 368 251.5Q417 197 493.5 170.5Q570 144 657 144Q758 144 838.5 177Q919 210 966 270Q1013 330 1013 409Q1013 481 972.5 526Q932 571 865 600Q798 629 718 651L538 702Q358 753 258 848Q158 943 158 1091Q158 1217 226 1311.5Q294 1406 410 1458Q526 1510 670 1510Q817 1510 930 1458Q1043 1406 1108.5 1316.5Q1174 1227 1178 1114L992 1114Q979 1223 888 1282.5Q797 1342 664 1342Q568 1342 495.5 1310.5Q423 1279 383 1224.5Q343 1170 343 1100Q343 1022 391.5 974.5Q440 927 506.5 900.5Q573 874 627 859L776 818Q836 802 908.5 774Q981 746 1047 699.5Q1113 653 1155.5 581.5Q1198 510 1198 406Q1198 284 1134.5 186Q1071 88 950 31Q829 -26 657 -26Z"/><path id="soof-g23" d="M180 0L180 1490L1088 1490L1088 1322L370 1322L370 836L1039 836L1039 668L370 668L370 168L1097 168L1097 0Z"/><path id="soof-g2" d="M52 0L593 1490L813 1490L1361 0L1161 0L845 884Q816 966 777.5 1088.5Q739 1211 684 1401L720 1401Q666 1209 626.5 1084.5Q587 960 561 884L254 0ZM324 416L324 582L1089 582L1089 416Z"/><path id="soof-g362" d="M128 -359L216 208L422 208L266 -359Z"/><path id="soof-g16" d="M180 0L180 1490L708 1490Q864 1490 965.5 1436.5Q1067 1383 1116.5 1293.5Q1166 1204 1166 1095Q1166 999 1132 936.5Q1098 874 1042.5 837Q987 800 922 782L922 768Q992 764 1061.5 720Q1131 676 1177.5 595Q1224 514 1224 397Q1224 285 1172.5 195Q1121 105 1011 52.5Q901 0 725 0ZM370 168L720 168Q894 168 967.5 235Q1041 302 1041 399Q1041 474 1003 537Q965 600 895.5 638Q826 676 730 676L370 676ZM370 836L698 836Q778 836 843 867.5Q908 899 946 956.5Q984 1014 984 1091Q984 1188 916.5 1255Q849 1322 704 1322L370 1322Z"/><path id="soof-g66" d="M784 -20Q593 -20 443.5 72.5Q294 165 208 336.5Q122 508 122 744Q122 981 208 1152.5Q294 1324 443.5 1417Q593 1510 784 1510Q975 1510 1124 1417Q1273 1324 1358.5 1152.5Q1444 981 1444 744Q1444 508 1358.5 336.5Q1273 165 1124 72.5Q975 -20 784 -20ZM784 156Q917 156 1024.5 223.5Q1132 291 1195.5 422.5Q1259 554 1259 744Q1259 936 1195.5 1067.5Q1132 1199 1024.5 1266.5Q917 1334 784 1334Q650 1334 542 1266Q434 1198 370.5 1066.5Q307 935 307 744Q307 554 370.5 423Q434 292 542 224Q650 156 784 156Z"/><path id="soof-g112" d="M458 0L52 1490L246 1490L482 576Q501 503 518 427.5Q535 352 551 274.5Q567 197 581 115L558 115Q573 197 589 274.5Q605 352 623 427.5Q641 503 660 576L901 1490L1117 1490L1356 576Q1376 503 1393.5 427.5Q1411 352 1428 274.5Q1445 197 1460 115L1434 115Q1449 197 1465 274.5Q1481 352 1499 427.5Q1517 503 1535 576L1770 1490L1966 1490L1558 0L1337 0L1081 944Q1056 1036 1033 1144.5Q1010 1253 988 1395L1028 1395Q1006 1261 985 1155.5Q964 1050 935 944L680 0Z"/><path id="soof-g38" d="M180 0L180 1490L370 1490L370 846L1152 846L1152 1490L1342 1490L1342 0L1152 0L1152 678L370 678L370 0Z"/><path id="soof-g52" d="M310 426L310 629Q361 699 411.5 763Q462 827 515 888Q568 949 624 1009L1069 1490L1318 1490L682 808L672 809ZM180 0L180 1490L370 1490L370 980L367 659L370 566L370 0ZM1094 0L555 758L673 906L1319 0Z"/><path id="soof-g61" d="M180 0L180 1490L404 1490L1010 537Q1034 500 1068 442Q1102 384 1141.5 311Q1181 238 1219 155L1192 155Q1183 241 1179 319.5Q1175 398 1174 464Q1173 530 1173 576L1173 1490L1363 1490L1363 0L1137 0L597 848Q560 907 522.5 969.5Q485 1032 437 1117.5Q389 1203 318 1329L353 1329Q358 1218 362 1124Q366 1030 368.5 960Q371 890 371 850L371 0Z"/><path id="soof-g21" d="M645 0L285 0L285 168L633 168Q815 168 934.5 237.5Q1054 307 1113 437Q1172 567 1172 748Q1172 927 1113.5 1055.5Q1055 1184 939.5 1253Q824 1322 651 1322L277 1322L277 1490L664 1490Q882 1490 1036.5 1401Q1191 1312 1273.5 1145.5Q1356 979 1356 748Q1356 515 1273 347.5Q1190 180 1031 90Q872 0 645 0ZM370 1490L370 0L180 0L180 1490Z"/><path id="soof-g340" d="M692 1560L212 -224L46 -224L526 1560Z"/><path id="soof-g109" d="M600 0L52 1490L252 1490L567 606Q594 530 634.5 403Q675 276 729 90L692 90Q746 281 786 405.5Q826 530 852 606L1159 1490L1361 1490L819 0Z"/><path id="soof-g87" d="M180 0L180 1490L690 1490Q864 1490 976.5 1430.5Q1089 1371 1143.5 1267Q1198 1163 1198 1030Q1198 897 1143.5 795Q1089 693 977 635.5Q865 578 691 578L286 578L286 747L682 747Q800 747 871.5 781.5Q943 816 976 879.5Q1009 943 1009 1030Q1009 1119 976 1184.5Q943 1250 871 1286.5Q799 1323 680 1323L370 1323L370 0ZM1036 0L676 671L890 671L1256 0Z"/><path id="soof-g51" d="M545 -20Q348 -20 224 96Q100 212 100 426L100 506L290 506L290 426Q290 290 360 218.5Q430 147 545 147Q659 147 729 218.5Q799 290 799 426L799 1490L989 1490L989 426Q989 212 865.5 96Q742 -20 545 -20Z"/><path id="soof-g18" d="M783 -20Q592 -20 442.5 72.5Q293 165 207.5 336.5Q122 508 122 744Q122 981 207.5 1152.5Q293 1324 442.5 1417Q592 1510 783 1510Q896 1510 996.5 1477Q1097 1444 1177 1380.5Q1257 1317 1310.5 1226.5Q1364 1136 1384 1021L1194 1021Q1178 1098 1139.5 1156Q1101 1214 1045.5 1254Q990 1294 923 1314Q856 1334 783 1334Q649 1334 541 1266Q433 1198 370 1066.5Q307 935 307 744Q307 554 370.5 422.5Q434 291 542 223.5Q650 156 783 156Q856 156 923 176.5Q990 197 1045.5 236.5Q1101 276 1139.5 334.5Q1178 393 1194 469L1384 469Q1365 355 1311.5 265Q1258 175 1178 111Q1098 47 997.5 13.5Q897 -20 783 -20Z"/><path id="soof-g58" d="M180 0L180 1490L450 1490L817 550Q830 517 846.5 467.5Q863 418 881.5 360Q900 302 917 244.5Q934 187 947 138L905 138Q919 184 936 240.5Q953 297 971.5 355.5Q990 414 1007 465Q1024 516 1037 550L1399 1490L1670 1490L1670 0L1483 0L1483 851Q1483 897 1483.5 956Q1484 1015 1485.5 1080Q1487 1145 1488.5 1212Q1490 1279 1491 1342L1507 1342Q1486 1273 1462.5 1201.5Q1439 1130 1416.5 1063.5Q1394 997 1374 942Q1354 887 1340 851L1007 0L842 0L504 851Q490 886 471 939.5Q452 993 429.5 1058.5Q407 1124 383 1196.5Q359 1269 334 1342L352 1342Q354 1286 355.5 1221Q357 1156 358 1089.5Q359 1023 360 961.5Q361 900 361 851L361 0Z"/><path id="soof-g220" d="M537 -14Q424 -14 338.5 32.5Q253 79 205.5 173Q158 267 158 408L158 1118L338 1118L338 423Q338 294 406 221Q474 148 591 148Q671 148 734.5 183Q798 218 835 285.5Q872 353 872 448L872 1118L1053 1118L1053 0L879 0L879 271L903 271Q851 114 755.5 50Q660 -14 537 -14Z"/><path id="soof-g149" d="M577 -24Q438 -24 331 47Q224 118 164 248Q104 378 104 556Q104 733 164.5 862.5Q225 992 332 1062Q439 1132 578 1132Q687 1132 751 1096Q815 1060 849.5 1014.5Q884 969 902 939L916 939L916 1490L1096 1490L1096 0L922 0L922 173L902 173Q884 142 848.5 95.5Q813 49 748.5 12.5Q684 -24 577 -24ZM604 137Q706 137 776 190.5Q846 244 882 339Q918 434 918 558Q918 682 882.5 774.5Q847 867 777 919Q707 971 604 971Q498 971 427.5 916Q357 861 322 767.5Q287 674 287 558Q287 441 322.5 345.5Q358 250 429 193.5Q500 137 604 137Z"/><path id="soof-g210" d="M158 0L158 1118L332 1118L332 946L344 946Q375 1031 454.5 1082.5Q534 1134 634 1134Q654 1134 681.5 1133Q709 1132 725 1131L725 950Q717 952 685 956Q653 960 617 960Q537 960 473.5 926.5Q410 893 374 834.5Q338 776 338 700L338 0Z"/><path id="soof-g195" d="M613 -24Q461 -24 346.5 48Q232 120 168 250Q104 380 104 552Q104 727 168 857.5Q232 988 346.5 1060Q461 1132 613 1132Q766 1132 881 1060Q996 988 1060 857.5Q1124 727 1124 552Q1124 380 1060 250Q996 120 881 48Q766 -24 613 -24ZM613 137Q726 137 799 195Q872 253 907 347.5Q942 442 942 552Q942 663 907 758.5Q872 854 799 912.5Q726 971 613 971Q501 971 429 912.5Q357 854 322 759Q287 664 287 552Q287 442 322 347.5Q357 253 429 195Q501 137 613 137Z"/><path id="soof-g187" d="M158 0L158 1118L333 1118L334 868L320 868Q343 959 392.5 1018.5Q442 1078 508.5 1108Q575 1138 647 1138Q769 1138 844.5 1063Q920 988 942 866L918 866Q938 950 991 1011Q1044 1072 1119.5 1105Q1195 1138 1284 1138Q1381 1138 1461 1096Q1541 1054 1588.5 969Q1636 884 1636 754L1636 0L1456 0L1456 749Q1456 870 1388 922Q1320 974 1230 974Q1155 974 1100.5 942.5Q1046 911 1016.5 856Q987 801 987 730L987 0L807 0L807 767Q807 860 745 917Q683 974 588 974Q523 974 465.5 943.5Q408 913 373 853Q338 793 338 704L338 0Z"/><path id="soof-g151" d="M628 -24Q466 -24 348.5 48Q231 120 167.5 249Q104 378 104 550Q104 722 166 853Q228 984 341.5 1058Q455 1132 607 1132Q696 1132 782.5 1102.5Q869 1073 939.5 1007.5Q1010 942 1052 835Q1094 728 1094 573L1094 498L226 498L226 650L997 650L913 594Q913 704 878.5 789.5Q844 875 776 923.5Q708 972 607 972Q506 972 434 922.5Q362 873 324 793.5Q286 714 286 623L286 522Q286 398 329 311.5Q372 225 449.5 180.5Q527 136 629 136Q695 136 749 155Q803 174 842 212.5Q881 251 902 308L1076 260Q1050 176 988 112Q926 48 834.5 12Q743 -24 628 -24Z"/><path id="soof-g190" d="M338 670L338 0L158 0L158 1118L331 1118L332 847L307 847Q358 1002 452.5 1067Q547 1132 674 1132Q787 1132 872 1085.5Q957 1039 1004.5 945.5Q1052 852 1052 710L1052 0L872 0L872 695Q872 824 804.5 897Q737 970 620 970Q540 970 476 935Q412 900 375 833Q338 766 338 670Z"/><path id="soof-g146" d="M613 -24Q461 -24 346.5 48Q232 120 168 250Q104 380 104 552Q104 727 168 857.5Q232 988 346.5 1060Q461 1132 613 1132Q694 1132 766 1111Q838 1090 897.5 1050.5Q957 1011 1000 953.5Q1043 896 1066 823L893 774Q881 817 856 853Q831 889 795.5 915.5Q760 942 714 956.5Q668 971 613 971Q501 971 429 912.5Q357 854 322 759Q287 664 287 552Q287 442 322 347.5Q357 253 429 195Q501 137 613 137Q669 137 716 152Q763 167 799.5 194.5Q836 222 861 260Q886 298 898 343L1070 294Q1048 219 1004.5 160.5Q961 102 901 60.5Q841 19 768 -2.5Q695 -24 613 -24Z"/><path id="soof-g164" d="M338 670L338 0L158 0L158 1490L338 1490L338 847L307 847Q358 1002 452.5 1067Q547 1132 674 1132Q787 1132 872.5 1085.5Q958 1039 1005.5 945.5Q1053 852 1053 710L1053 0L872 0L872 695Q872 824 804.5 897Q737 970 620 970Q540 970 476 935Q412 900 375 833Q338 766 338 670Z"/><path id="soof-g130" d="M471 -26Q365 -26 278.5 14Q192 54 141 131Q90 208 90 318Q90 414 128 474Q166 534 229.5 568.5Q293 603 370 620Q447 637 525 647Q625 660 688 667Q751 674 781.5 691Q812 708 812 749L812 755Q812 825 786 873.5Q760 922 708 948Q656 974 578 974Q498 974 441 949Q384 924 348.5 886.5Q313 849 295 810L122 867Q165 969 238 1026.5Q311 1084 399 1108Q487 1132 573 1132Q629 1132 700.5 1118.5Q772 1105 838.5 1065Q905 1025 948.5 946.5Q992 868 992 737L992 0L815 0L815 152L803 152Q784 113 742 71.5Q700 30 633 2Q566 -26 471 -26ZM502 133Q602 133 671 172Q740 211 776 273.5Q812 336 812 404L812 559Q801 546 764 535.5Q727 525 679.5 517Q632 509 587.5 503.5Q543 498 517 495Q452 487 395.5 467.5Q339 448 305 410.5Q271 373 271 309Q271 251 301 212Q331 173 383 153Q435 133 502 133Z"/><path id="soof-g180" d="M327 402L327 625L360 625L838 1118L1061 1118L544 587L524 587ZM158 0L158 1490L338 1490L338 0ZM865 0L437 547L565 674L1096 0Z"/><path id="soof-g213" d="M538 -24Q423 -24 333.5 9.5Q244 43 186 109Q128 175 108 271L279 312Q303 220 369.5 177Q436 134 536 134Q653 134 722.5 184Q792 234 792 303Q792 361 751.5 399.5Q711 438 628 457L442 501Q290 537 216 612.5Q142 688 142 806Q142 902 196 975.5Q250 1049 343.5 1090.5Q437 1132 556 1132Q671 1132 751.5 1097.5Q832 1063 882.5 1002.5Q933 942 958 863L795 821Q772 881 718.5 930Q665 979 557 979Q457 979 390.5 933Q324 887 324 817Q324 755 369 717.5Q414 680 512 657L681 617Q833 581 906 505.5Q979 430 979 315Q979 217 923.5 140.5Q868 64 768.5 20Q669 -24 538 -24Z"/><path id="soof-g240" d="M140 -405L186 -249L205 -254Q260 -268 305 -261.5Q350 -255 386 -217Q422 -179 449 -99L481 -6L54 1118L251 1118L489 455Q527 351 553 249Q579 147 608 51L542 51Q571 147 597.5 249.5Q624 352 661 455L901 1118L1097 1118L606 -167Q572 -256 524.5 -313.5Q477 -371 414 -398.5Q351 -426 272 -426Q224 -426 189 -419Q154 -412 140 -405Z"/><path id="soof-g230" d="M481 0L54 1118L251 1118L489 455Q527 352 553.5 249.5Q580 147 609 51L543 51Q572 147 598.5 249.5Q625 352 662 455L900 1118L1097 1118L670 0Z"/><path id="soof-g167" d="M158 0L158 1118L338 1118L338 0ZM249 1301Q198 1301 161 1336Q124 1371 124 1420Q124 1470 161 1504.5Q198 1539 249 1539Q301 1539 338 1504.5Q375 1470 375 1420Q375 1371 338 1336Q301 1301 249 1301Z"/><path id="soof-g183" d="M338 1490L338 0L158 0L158 1490Z"/><path id="soof-g35" d="M789 -20Q590 -20 440 73Q290 166 206 337.5Q122 509 122 744Q122 981 206 1152.5Q290 1324 438 1417Q586 1510 777 1510Q895 1510 997.5 1475Q1100 1440 1181 1375Q1262 1310 1315.5 1220.5Q1369 1131 1389 1023L1193 1023Q1170 1095 1132 1152Q1094 1209 1041.5 1250Q989 1291 923 1312.5Q857 1334 778 1334Q647 1334 540 1266.5Q433 1199 370 1067.5Q307 936 307 744Q307 554 370.5 423Q434 292 543 224Q652 156 789 156Q915 156 1011 209.5Q1107 263 1160.5 361.5Q1214 460 1214 594L1271 583L828 583L828 749L1400 749L1400 586Q1400 401 1321 265Q1242 129 1104.5 54.5Q967 -20 789 -20Z"/><path id="soof-g217" d="M598 1118L598 964L20 964L20 1118ZM188 1384L368 1384L368 290Q368 215 398.5 180.5Q429 146 500 146Q517 146 543.5 150Q570 154 592 158L629 6Q601 -4 565.5 -9Q530 -14 495 -14Q350 -14 269 62.5Q188 139 188 276Z"/><path id="soof-g375" d="M226 717L226 883L1130 883L1130 717ZM226 283L226 449L1130 449L1130 283Z"/><path id="soof-g258" d="M646 -20Q480 -20 363 70Q246 160 184 330.5Q122 501 122 744Q122 986 184.5 1157Q247 1328 364 1419Q481 1510 646 1510Q811 1510 928.5 1419Q1046 1328 1108 1157Q1170 986 1170 744Q1170 502 1108.5 331Q1047 160 930 70Q813 -20 646 -20ZM646 146Q755 146 831 217Q907 288 947 421.5Q987 555 987 744Q987 934 947 1068.5Q907 1203 831 1274Q755 1345 646 1345Q537 1345 461 1273.5Q385 1202 345 1068Q305 934 305 744Q305 555 345 421.5Q385 288 461 217Q537 146 646 146Z"/></defs>
</svg>
