<svg xmlns="http://www.w3.org/2000/svg" width="1200" height="1500" viewBox="0 0 1200 1500" role="img" aria-label="Placeholder">
<defs>
<linearGradient id="g" gradientTransform="rotate(16)"><stop offset="0" stop-color="#4A3320"/><stop offset="1" stop-color="#8B5A2B"/></linearGradient>
<filter id="f" x="-5%" y="-10%" width="110%" height="120%"><feTurbulence type="fractalNoise" baseFrequency="0.004 0.08" numOctaves="3" seed="506" result="t"/><feDisplacementMap in="SourceGraphic" in2="t" scale="42" xChannelSelector="R" yChannelSelector="G"/></filter>
<radialGradient id="v" cx="0.22" cy="0.49" r="1"><stop offset="0" stop-color="#E9A23B" stop-opacity="0.16"/><stop offset="0.55" stop-color="#0F0D0B" stop-opacity="0.1"/><stop offset="1" stop-color="#0F0D0B" stop-opacity="0.6"/></radialGradient>
</defs>
<rect width="1200" height="1500" fill="url(#g)"/>
<g filter="url(#f)"><rect y="458" width="1200" height="4" fill="#2C1A0E" opacity="0.14"/><rect y="1020" width="1200" height="2" fill="#2C1A0E" opacity="0.34"/><rect y="740" width="1200" height="9" fill="#2C1A0E" opacity="0.33"/><rect y="301" width="1200" height="11" fill="#2C1A0E" opacity="0.38"/><rect y="1227" width="1200" height="12" fill="#2C1A0E" opacity="0.38"/><rect y="255" width="1200" height="10" fill="#A87A50" opacity="0.18"/><rect y="126" width="1200" height="14" fill="#A87A50" opacity="0.36"/><rect y="578" width="1200" height="11" fill="#2C1A0E" opacity="0.13"/><rect y="850" width="1200" height="14" fill="#A87A50" opacity="0.41"/><rect y="860" width="1200" height="11" fill="#2C1A0E" opacity="0.19"/><rect y="1222" width="1200" height="14" fill="#2C1A0E" opacity="0.19"/><rect y="378" width="1200" height="2" fill="#2C1A0E" opacity="0.37"/><rect y="215" width="1200" height="13" fill="#A87A50" opacity="0.40"/><rect y="1142" width="1200" height="4" fill="#A87A50" opacity="0.40"/><rect y="420" width="1200" height="10" fill="#2C1A0E" opacity="0.31"/><rect y="532" width="1200" height="14" fill="#A87A50" opacity="0.19"/><rect y="616" width="1200" height="4" fill="#2C1A0E" opacity="0.40"/><rect y="243" width="1200" height="2" fill="#A87A50" opacity="0.30"/><rect y="652" width="1200" height="15" fill="#2C1A0E" opacity="0.32"/><rect y="1250" width="1200" height="12" fill="#A87A50" opacity="0.36"/><rect y="350" width="1200" height="9" fill="#2C1A0E" opacity="0.37"/><rect y="469" width="1200" height="2" fill="#2C1A0E" opacity="0.28"/><rect y="815" width="1200" height="6" fill="#A87A50" opacity="0.32"/><rect y="753" width="1200" height="12" fill="#A87A50" opacity="0.40"/><rect y="103" width="1200" height="13" fill="#A87A50" opacity="0.13"/><rect y="1331" width="1200" height="9" fill="#2C1A0E" opacity="0.14"/><rect y="1439" width="1200" height="6" fill="#A87A50" opacity="0.14"/><rect y="313" width="1200" height="3" fill="#A87A50" opacity="0.13"/><rect y="74" width="1200" height="12" fill="#A87A50" opacity="0.30"/><rect y="62" width="1200" height="9" fill="#A87A50" opacity="0.29"/><rect y="251" width="1200" height="4" fill="#A87A50" opacity="0.24"/><rect y="905" width="1200" height="9" fill="#2C1A0E" opacity="0.15"/><rect y="1441" width="1200" height="3" fill="#2C1A0E" opacity="0.16"/><rect y="1099" width="1200" height="10" fill="#2C1A0E" opacity="0.22"/><rect y="804" width="1200" height="15" fill="#2C1A0E" opacity="0.22"/><rect y="1077" width="1200" height="5" fill="#A87A50" opacity="0.29"/><rect y="1290" width="1200" height="4" fill="#A87A50" opacity="0.24"/><rect y="631" width="1200" height="10" fill="#2C1A0E" opacity="0.13"/><rect y="662" width="1200" height="10" fill="#2C1A0E" opacity="0.34"/><rect y="897" width="1200" height="7" fill="#A87A50" opacity="0.27"/><rect y="538" width="1200" height="11" fill="#A87A50" opacity="0.25"/><rect y="805" width="1200" height="8" fill="#A87A50" opacity="0.37"/><rect y="773" width="1200" height="5" fill="#A87A50" opacity="0.32"/><rect y="332" width="1200" height="6" fill="#A87A50" opacity="0.24"/><rect y="1246" width="1200" height="5" fill="#A87A50" opacity="0.23"/><rect y="950" width="1200" height="8" fill="#A87A50" opacity="0.33"/><rect y="1288" width="1200" height="12" fill="#A87A50" opacity="0.22"/><rect y="1357" width="1200" height="14" fill="#2C1A0E" opacity="0.27"/><rect y="1050" width="1200" height="16" fill="#A87A50" opacity="0.28"/><rect y="993" width="1200" height="15" fill="#2C1A0E" opacity="0.40"/><rect y="65" width="1200" height="15" fill="#A87A50" opacity="0.41"/><rect y="602" width="1200" height="13" fill="#2C1A0E" opacity="0.17"/><rect y="771" width="1200" height="15" fill="#2C1A0E" opacity="0.21"/><rect y="906" width="1200" height="9" fill="#A87A50" opacity="0.31"/><rect y="1369" width="1200" height="3" fill="#A87A50" opacity="0.40"/><rect y="859" width="1200" height="8" fill="#A87A50" opacity="0.29"/><rect y="1236" width="1200" height="15" fill="#2C1A0E" opacity="0.22"/><rect y="1108" width="1200" height="3" fill="#A87A50" opacity="0.15"/><rect y="597" width="1200" height="11" fill="#2C1A0E" opacity="0.21"/><rect y="477" width="1200" height="8" fill="#2C1A0E" opacity="0.28"/><rect y="911" width="1200" height="11" fill="#2C1A0E" opacity="0.30"/><rect y="465" width="1200" height="6" fill="#2C1A0E" opacity="0.24"/><rect y="103" width="1200" height="11" fill="#A87A50" opacity="0.33"/><rect y="893" width="1200" height="16" fill="#A87A50" opacity="0.17"/><rect y="370" width="1200" height="16" fill="#A87A50" opacity="0.18"/><rect y="903" width="1200" height="6" fill="#2C1A0E" opacity="0.39"/><rect y="527" width="1200" height="14" fill="#2C1A0E" opacity="0.14"/><rect y="246" width="1200" height="9" fill="#A87A50" opacity="0.26"/><rect y="113" width="1200" height="3" fill="#A87A50" opacity="0.35"/><rect y="696" width="1200" height="2" fill="#A87A50" opacity="0.36"/><rect y="1372" width="1200" height="12" fill="#A87A50" opacity="0.32"/><rect y="1066" width="1200" height="15" fill="#A87A50" opacity="0.29"/><rect y="442" width="1200" height="7" fill="#2C1A0E" opacity="0.30"/><rect y="1195" width="1200" height="10" fill="#2C1A0E" opacity="0.40"/><rect y="1224" width="1200" height="5" fill="#2C1A0E" opacity="0.40"/><rect y="371" width="1200" height="10" fill="#A87A50" opacity="0.15"/><rect y="59" width="1200" height="13" fill="#2C1A0E" opacity="0.40"/><rect y="1007" width="1200" height="7" fill="#2C1A0E" opacity="0.37"/><rect y="941" width="1200" height="10" fill="#A87A50" opacity="0.23"/><rect y="1298" width="1200" height="10" fill="#A87A50" opacity="0.38"/><ellipse cx="622" cy="1040" rx="118" ry="74" fill="none" stroke="#2C1A0E" stroke-width="2.5" opacity="0.35"/><ellipse cx="273" cy="525" rx="58" ry="36" fill="none" stroke="#2C1A0E" stroke-width="2.9" opacity="0.35"/></g>
<rect width="1200" height="1500" fill="url(#v)"/>
</svg>
