<svg xmlns="http://www.w3.org/2000/svg" width="1600" height="1200" viewBox="0 0 1600 1200" role="img" aria-label="Placeholder">
<defs>
<linearGradient id="g" gradientTransform="rotate(33)"><stop offset="0" stop-color="#4A3320"/><stop offset="1" stop-color="#8B5A2B"/></linearGradient>
<filter id="f" x="-5%" y="-10%" width="110%" height="120%"><feTurbulence type="fractalNoise" baseFrequency="0.004 0.08" numOctaves="3" seed="103" result="t"/><feDisplacementMap in="SourceGraphic" in2="t" scale="42" xChannelSelector="R" yChannelSelector="G"/></filter>
<radialGradient id="v" cx="0.29" cy="0.14" r="1"><stop offset="0" stop-color="#E9A23B" stop-opacity="0.16"/><stop offset="0.55" stop-color="#0F0D0B" stop-opacity="0.1"/><stop offset="1" stop-color="#0F0D0B" stop-opacity="0.6"/></radialGradient>
</defs>
<rect width="1600" height="1200" fill="url(#g)"/>
<g filter="url(#f)"><rect y="484" width="1600" height="4" fill="#A87A50" opacity="0.26"/><rect y="911" width="1600" height="7" fill="#A87A50" opacity="0.34"/><rect y="606" width="1600" height="8" fill="#2C1A0E" opacity="0.33"/><rect y="1042" width="1600" height="15" fill="#A87A50" opacity="0.26"/><rect y="401" width="1600" height="15" fill="#A87A50" opacity="0.14"/><rect y="875" width="1600" height="13" fill="#A87A50" opacity="0.29"/><rect y="26" width="1600" height="12" fill="#A87A50" opacity="0.12"/><rect y="175" width="1600" height="8" fill="#A87A50" opacity="0.29"/><rect y="694" width="1600" height="13" fill="#2C1A0E" opacity="0.17"/><rect y="802" width="1600" height="5" fill="#A87A50" opacity="0.41"/><rect y="1119" width="1600" height="14" fill="#2C1A0E" opacity="0.32"/><rect y="597" width="1600" height="11" fill="#2C1A0E" opacity="0.39"/><rect y="90" width="1600" height="8" fill="#2C1A0E" opacity="0.28"/><rect y="1173" width="1600" height="13" fill="#A87A50" opacity="0.36"/><rect y="690" width="1600" height="6" fill="#2C1A0E" opacity="0.27"/><rect y="298" width="1600" height="8" fill="#A87A50" opacity="0.19"/><rect y="657" width="1600" height="6" fill="#2C1A0E" opacity="0.24"/><rect y="91" width="1600" height="11" fill="#2C1A0E" opacity="0.29"/><rect y="684" width="1600" height="10" fill="#2C1A0E" opacity="0.23"/><rect y="813" width="1600" height="10" fill="#A87A50" opacity="0.23"/><rect y="113" width="1600" height="5" fill="#A87A50" opacity="0.34"/><rect y="501" width="1600" height="14" fill="#A87A50" opacity="0.30"/><rect y="872" width="1600" height="15" fill="#A87A50" opacity="0.12"/><rect y="904" width="1600" height="4" fill="#A87A50" opacity="0.35"/><rect y="869" width="1600" height="4" fill="#2C1A0E" opacity="0.27"/><rect y="992" width="1600" height="12" fill="#2C1A0E" opacity="0.27"/><rect y="687" width="1600" height="14" fill="#A87A50" opacity="0.35"/><rect y="296" width="1600" height="3" fill="#2C1A0E" opacity="0.17"/><rect y="21" width="1600" height="13" fill="#A87A50" opacity="0.27"/><rect y="868" width="1600" height="11" fill="#2C1A0E" opacity="0.13"/><rect y="543" width="1600" height="12" fill="#A87A50" opacity="0.25"/><rect y="926" width="1600" height="2" fill="#A87A50" opacity="0.30"/><rect y="1154" width="1600" height="13" fill="#A87A50" opacity="0.26"/><rect y="662" width="1600" height="9" fill="#A87A50" opacity="0.39"/><rect y="881" width="1600" height="10" fill="#A87A50" opacity="0.15"/><rect y="669" width="1600" height="6" fill="#A87A50" opacity="0.13"/><rect y="120" width="1600" height="15" fill="#A87A50" opacity="0.32"/><rect y="488" width="1600" height="4" fill="#A87A50" opacity="0.41"/><rect y="221" width="1600" height="5" fill="#2C1A0E" opacity="0.42"/><rect y="1016" width="1600" height="15" fill="#2C1A0E" opacity="0.38"/><rect y="159" width="1600" height="8" fill="#2C1A0E" opacity="0.39"/><rect y="41" width="1600" height="12" fill="#2C1A0E" opacity="0.42"/><rect y="1151" width="1600" height="6" fill="#A87A50" opacity="0.19"/><rect y="275" width="1600" height="7" fill="#A87A50" opacity="0.15"/><rect y="946" width="1600" height="7" fill="#A87A50" opacity="0.23"/><rect y="1065" width="1600" height="7" fill="#2C1A0E" opacity="0.27"/><rect y="1154" width="1600" height="14" fill="#2C1A0E" opacity="0.33"/><rect y="988" width="1600" height="3" fill="#A87A50" opacity="0.23"/><rect y="161" width="1600" height="15" fill="#A87A50" opacity="0.25"/><rect y="363" width="1600" height="11" fill="#A87A50" opacity="0.21"/><rect y="636" width="1600" height="6" fill="#2C1A0E" opacity="0.29"/><rect y="720" width="1600" height="8" fill="#2C1A0E" opacity="0.21"/><rect y="11" width="1600" height="5" fill="#A87A50" opacity="0.25"/><rect y="892" width="1600" height="2" fill="#2C1A0E" opacity="0.26"/><rect y="1081" width="1600" height="11" fill="#2C1A0E" opacity="0.15"/><rect y="1169" width="1600" height="16" fill="#2C1A0E" opacity="0.21"/><rect y="335" width="1600" height="10" fill="#A87A50" opacity="0.38"/><rect y="973" width="1600" height="8" fill="#A87A50" opacity="0.27"/><rect y="529" width="1600" height="4" fill="#2C1A0E" opacity="0.33"/><rect y="89" width="1600" height="3" fill="#A87A50" opacity="0.21"/><rect y="738" width="1600" height="14" fill="#2C1A0E" opacity="0.29"/><rect y="984" width="1600" height="6" fill="#2C1A0E" opacity="0.41"/><rect y="601" width="1600" height="7" fill="#A87A50" opacity="0.42"/><rect y="106" width="1600" height="9" fill="#2C1A0E" opacity="0.25"/><rect y="682" width="1600" height="6" fill="#A87A50" opacity="0.20"/><rect y="892" width="1600" height="3" fill="#2C1A0E" opacity="0.38"/><rect y="661" width="1600" height="6" fill="#A87A50" opacity="0.28"/><rect y="224" width="1600" height="7" fill="#2C1A0E" opacity="0.39"/><rect y="981" width="1600" height="9" fill="#2C1A0E" opacity="0.34"/><rect y="419" width="1600" height="10" fill="#2C1A0E" opacity="0.21"/><rect y="1187" width="1600" height="9" fill="#A87A50" opacity="0.16"/><rect y="1090" width="1600" height="3" fill="#A87A50" opacity="0.22"/><rect y="363" width="1600" height="12" fill="#A87A50" opacity="0.17"/><rect y="911" width="1600" height="15" fill="#A87A50" opacity="0.22"/><rect y="968" width="1600" height="12" fill="#2C1A0E" opacity="0.36"/><rect y="247" width="1600" height="13" fill="#A87A50" opacity="0.33"/><rect y="230" width="1600" height="12" fill="#A87A50" opacity="0.29"/><rect y="56" width="1600" height="4" fill="#A87A50" opacity="0.32"/><rect y="542" width="1600" height="8" fill="#A87A50" opacity="0.14"/><rect y="355" width="1600" height="8" fill="#A87A50" opacity="0.34"/><rect y="292" width="1600" height="5" fill="#A87A50" opacity="0.13"/><rect y="502" width="1600" height="9" fill="#2C1A0E" opacity="0.22"/><rect y="488" width="1600" height="2" fill="#2C1A0E" opacity="0.26"/><rect y="511" width="1600" height="12" fill="#A87A50" opacity="0.24"/><rect y="845" width="1600" height="5" fill="#A87A50" opacity="0.30"/><rect y="818" width="1600" height="9" fill="#2C1A0E" opacity="0.40"/><rect y="855" width="1600" height="16" fill="#2C1A0E" opacity="0.29"/><rect y="935" width="1600" height="13" fill="#A87A50" opacity="0.20"/><rect y="596" width="1600" height="9" fill="#2C1A0E" opacity="0.31"/><rect y="952" width="1600" height="10" fill="#2C1A0E" opacity="0.20"/><rect y="1047" width="1600" height="11" fill="#2C1A0E" opacity="0.15"/><rect y="162" width="1600" height="6" fill="#2C1A0E" opacity="0.14"/><rect y="1152" width="1600" height="2" fill="#2C1A0E" opacity="0.29"/><rect y="607" width="1600" height="6" fill="#2C1A0E" opacity="0.28"/><rect y="921" width="1600" height="6" fill="#2C1A0E" opacity="0.15"/><rect y="1128" width="1600" height="4" fill="#A87A50" opacity="0.28"/><rect y="801" width="1600" height="7" fill="#2C1A0E" opacity="0.26"/><rect y="10" width="1600" height="11" fill="#A87A50" opacity="0.19"/><rect y="122" width="1600" height="11" fill="#A87A50" opacity="0.36"/><rect y="1190" width="1600" height="7" fill="#2C1A0E" opacity="0.24"/><rect y="618" width="1600" height="5" fill="#A87A50" opacity="0.30"/></g>
<rect width="1600" height="1200" fill="url(#v)"/>
</svg>
